<svg xmlns="http://www.w3.org/2000/svg" width="18" height="18" viewBox="0 0 18 18">
  <g id="Group_106" data-name="Group 106" transform="translate(-625 -830)">
    <rect id="Rectangle_236" data-name="Rectangle 236" width="18" height="18" rx="2" transform="translate(625 830)" fill="#fff"/>
    <path id="Icon_metro-google-plus" data-name="Icon metro-google-plus" d="M8.91,3.856H5.872c-1.362,0-2.644.95-2.644,2.05A2.12,2.12,0,0,0,5.542,7.938c.1,0,.19,0,.282-.008a1.071,1.071,0,0,0-.154.522,1.057,1.057,0,0,0,.413.773c-.174,0-.343,0-.527,0-1.687,0-2.985.989-2.985,2.014,0,1.01,1.423,1.642,3.11,1.642,1.923,0,2.985-1,2.985-2.014A1.915,1.915,0,0,0,7.6,9.054c-.275-.179-.8-.614-.8-.87,0-.3.093-.447.583-.8a1.842,1.842,0,0,0,.858-1.46,1.646,1.646,0,0,0-.979-1.615H8.23ZM7.848,10.7a1.154,1.154,0,0,1,.037.288c0,.816-.571,1.454-2.211,1.454-1.166,0-2.008-.679-2.008-1.5,0-.8,1.045-1.466,2.211-1.454a2.738,2.738,0,0,1,.756.112C7.266,10.006,7.72,10.235,7.848,10.7ZM5.981,7.653A1.958,1.958,0,0,1,4.32,5.9c-.135-.946.39-1.67,1.172-1.649A1.93,1.93,0,0,1,7.154,5.979C7.289,6.925,6.764,7.674,5.981,7.653ZM12,5.86v-2h-.726v2H9.1v.668h2.177v2H12v-2h2.177V5.86Z" transform="translate(625.624 830.629)" fill="#370c50"/>
  </g>
</svg>
