<svg xmlns="http://www.w3.org/2000/svg" width="18" height="18" viewBox="0 0 18 18">
  <path id="Icon_awesome-twitter-square" data-name="Icon awesome-twitter-square" d="M16.071,2.25H1.929A1.929,1.929,0,0,0,0,4.179V18.321A1.929,1.929,0,0,0,1.929,20.25H16.071A1.929,1.929,0,0,0,18,18.321V4.179A1.929,1.929,0,0,0,16.071,2.25ZM14.107,8.63c.008.113.008.229.008.342a7.446,7.446,0,0,1-7.5,7.5,7.463,7.463,0,0,1-4.046-1.181,5.552,5.552,0,0,0,.635.032A5.283,5.283,0,0,0,6.477,14.2a2.639,2.639,0,0,1-2.463-1.828A2.84,2.84,0,0,0,5.2,12.319,2.635,2.635,0,0,1,3.094,9.731V9.7a2.633,2.633,0,0,0,1.189.333A2.63,2.63,0,0,1,3.11,7.839a2.6,2.6,0,0,1,.358-1.33A7.482,7.482,0,0,0,8.9,9.265a2.641,2.641,0,0,1,4.5-2.407,5.164,5.164,0,0,0,1.671-.635,2.628,2.628,0,0,1-1.157,1.45,5.244,5.244,0,0,0,1.519-.41A5.547,5.547,0,0,1,14.107,8.63Z" transform="translate(0 -2.25)" fill="#fff"/>
</svg>
