<svg xmlns="http://www.w3.org/2000/svg" width="611.268" height="640.676" viewBox="0 0 611.268 640.676">
  <g id="Movie_Night-amico" data-name="Movie Night-amico" transform="translate(-34.584 -38.55)">
    <g id="freepik--Floor--inject-304" transform="translate(47.362 347.698)">
      <path id="freepik--floor--inject-304-2" data-name="freepik--floor--inject-304" d="M553.824,524.716c-116.863,64.738-306.331,64.738-423.194,0s-116.863-169.689,0-234.427,306.331-64.723,423.194,0S670.688,459.978,553.824,524.716Z" transform="translate(-42.983 -241.741)" fill="#f5f5f5"/>
    </g>
    <g id="freepik--Shadows--inject-304" transform="translate(84.711 417.959)">
      <path id="freepik--Shadow--inject-304" d="M202.943,413.835l98.469,56.446a7.272,7.272,0,0,0,6.6,0L511.541,352.764a2.008,2.008,0,0,0,0-3.8l-104.9-60.28a7.06,7.06,0,0,0-6.542.091L202.882,409.956a2.069,2.069,0,0,0,.061,3.88Z" transform="translate(2.362 -287.921)" fill="#e0e0e0"/>
      <path id="freepik--shadow--inject-304-2" data-name="freepik--shadow--inject-304" d="M173.545,432.061l-104.661-60.4a2.024,2.024,0,0,1,0-3.819l104.342-60.63a7.288,7.288,0,0,1,6.588,0l104.981,60.645a2.008,2.008,0,0,1,0,3.8l-104.661,60.4a7.288,7.288,0,0,1-6.588,0Z" transform="translate(-67.53 -278.274)" fill="#e0e0e0"/>
      <ellipse id="freepik--shadow--inject-304-3" data-name="freepik--shadow--inject-304" cx="53.692" cy="31.966" rx="53.692" ry="31.966" transform="translate(329.944 141.205)" fill="#e0e0e0"/>
      <ellipse id="freepik--shadow--inject-304-4" data-name="freepik--shadow--inject-304" cx="53.175" cy="31.662" rx="53.175" ry="31.662" transform="translate(406.503 105.07)" fill="#e0e0e0"/>
    </g>
    <g id="freepik--Plants--inject-304" transform="translate(34.584 384.31)">
      <g id="freepik--plants--inject-304-2" data-name="freepik--plants--inject-304">
        <g id="freepik--plants--inject-304-3" data-name="freepik--plants--inject-304" transform="translate(0 28.288)">
          <path id="Path_1518" data-name="Path 1518" d="M93.337,341.471c-.152-9.129-7.105-28.04-16.827-39.771s-24.83-20.174-35.389-16.386c-9.829,3.56-8.535,16.508,3.621,24.906S75.171,329.1,80.663,343.875l11.4,18.044Z" transform="translate(-34.584 -284.398)" fill="#370c50"/>
          <path id="Path_1520" data-name="Path 1520" d="M90.495,351.852a.669.669,0,0,1-.609-.517c-6.679-31.19-32.438-56.172-47.683-61.528a.669.669,0,0,1-.411-.852.654.654,0,0,1,.852-.411c15.534,5.447,41.764,30.855,48.55,62.5a.669.669,0,0,1-.517.791Z" transform="translate(-30.844 -282.257)" fill="#fff"/>
          <path id="Path_1521" data-name="Path 1521" d="M87.668,360.607c-1.521-5.127-8-13.526-18.258-20.372-11.4-7.607-25.713-10.894-29.106-16.873-4.062-7.2,1.932-14.165,13.526-12.932s32.194,16.645,35.861,40.349Z" transform="translate(-32.262 -270.898)" fill="#370c50"/>
          <path id="Path_1522" data-name="Path 1522" d="M86.53,352.981a.669.669,0,0,1-.578-.441C75.895,325.929,55.279,316.8,45.785,315.8a.669.669,0,0,1-.593-.746.654.654,0,0,1,.746-.578c10.5,1.172,30.992,10.407,41.262,37.6a.654.654,0,0,1-.38.867.884.884,0,0,1-.289.046Z" transform="translate(-29.054 -268.719)" fill="#fff"/>
        </g>
        <g id="freepik--plants--inject-304-4" data-name="freepik--plants--inject-304" transform="translate(550.272)">
          <path id="Path_1523" data-name="Path 1523" d="M399.029,320.874s-1.065-15.762,4.412-29.166,14.682-22.822,24.343-25.393,19.323,5.021,9.92,13.176-26.96,17.938-31.312,42.8Z" transform="translate(-394.856 -265.805)" fill="#370c50"/>
          <path id="Path_1525" data-name="Path 1525" d="M400.635,314.842h-.106a.548.548,0,0,1-.426-.624c5.705-27.508,23.537-41.825,32.179-45.553a.531.531,0,1,1,.426.974c-8.459,3.651-25.865,17.71-31.555,44.792a.532.532,0,0,1-.517.411Z" transform="translate(-394.256 -264.337)" fill="#fff"/>
          <path id="Path_1526" data-name="Path 1526" d="M449.862,296.367c-.563,2.313-2.693,3.849-4.7,5.127s-4.184,2.647-4.991,4.884c-1.613,4.564,3.317,9.54,1.522,13.982a7.455,7.455,0,0,1-4.458,3.8,48.145,48.145,0,0,1-4.823,1.339,18.449,18.449,0,0,1-2.373.244,10.832,10.832,0,0,0-6.618,1.963c-2.921,2.419-3.165,6.694-4.564,10.224a15.686,15.686,0,0,1-9.677,8.855c-1.43.456-4.093,1.217-5.721.67l-.35-.137h0c-.243-.183-.548-.441-.7-.578v-.076c-.959-2.023-.426-4.4-.791-6.588a3.035,3.035,0,0,0,0-.4c-.563-2.526-1.1-5.036-1.628-7.607-.974-4.64-1.871-9.311-2.708-13.982-.517-3.043-1.521-6.3-.73-9.387.837-3.408,4.367-4.123,5.127-7.455.319-1.324.365-2.693.654-4.032a11.046,11.046,0,0,1,8.064-8.155c6.086-1.445,12.567,2.541,18.638.958,1.521-.426,3.043-1.187,4.564-1.765,4.823-1.856,10.863-1.521,14.439,2.221A6.558,6.558,0,0,1,449.862,296.367Z" transform="translate(-396.257 -254.671)" fill="#370c50"/>
          <path id="Path_1528" data-name="Path 1528" d="M398.9,335.617h0a.548.548,0,0,1-.487-.578c2.663-33.548,35.511-44.335,43.5-45.218a.548.548,0,0,1,.593.472.532.532,0,0,1-.472.593c-7.82.852-39.954,11.426-42.6,44.244A.533.533,0,0,1,398.9,335.617Z" transform="translate(-395.135 -253.283)" fill="#fff"/>
          <path id="Path_1529" data-name="Path 1529" d="M430.011,306.511a.548.548,0,0,1-.3-.091,28.482,28.482,0,0,0-24.115-2.267.533.533,0,1,1-.35-1,29.517,29.517,0,0,1,25.074,2.389.517.517,0,0,1,.122.745.487.487,0,0,1-.426.228Z" transform="translate(-391.773 -247.243)" fill="#fff"/>
        </g>
      </g>
    </g>
    <g id="freepik--Popcorn--inject-304" transform="translate(69.627 200.884)">
      <path id="Path_1530" data-name="Path 1530" d="M296.05,221.371a7.714,7.714,0,0,0-11.594-10.163c0-.776.122-1.521.122-2.373a23.461,23.461,0,0,0-34.994-20.418,10.393,10.393,0,0,0,.837-4.078,10.239,10.239,0,0,0-15.5-8.794,25.867,25.867,0,0,0,.274-3.621,26.549,26.549,0,0,0-50.208-12.172,9.3,9.3,0,0,0-17.04-.152,20.829,20.829,0,0,0-38.523,10.97,21.041,21.041,0,0,0,.259,3.119,7.714,7.714,0,0,0-12.6,5.979v.091a18.257,18.257,0,0,0-9.25-2.5,18.547,18.547,0,0,0-18.349,15.991,11.533,11.533,0,0,0-14.849,14.9,27.006,27.006,0,0,0,9.981,52.095l96.993,65.347L285.354,258.8A20.235,20.235,0,0,0,296,221.386Zm-13.6-2.83a1.423,1.423,0,0,1,.076-.152.438.438,0,0,1,0,.137Z" transform="translate(-57.617 -145.246)" fill="#f5f5f5"/>
      <path id="Path_1531" data-name="Path 1531" d="M107.84,166.28a18.547,18.547,0,0,0-18.349,15.991,11.533,11.533,0,0,0-14.849,14.9,27.006,27.006,0,0,0,9.981,52.095l96.993,65.347,96.643-62.213,2.48-9.3c-13.161,17.086-30.749,3.484-30.749,3.484s-1.339,8.718-8.7,9.25a10.163,10.163,0,0,1-10.057-5.553,20.159,20.159,0,0,1-16.66,15.139c-14.363,2.663-22.746-13.1-22.746-13.1s-2.693,7.105-10.209,5.2-4.853-6.086-4.853-6.086-4.275,3.758-11.624-.167-7.851-15.428-7.851-15.428a21.757,21.757,0,0,1-23.1-4.564c-10.65-10.118-1.628-24.024-1.628-24.024-16.006,3.134-15.412-10-15.412-10C94.786,194.2,96.4,172.259,107.84,166.28Z" transform="translate(-57.611 -134.278)" fill="#f0f0f0"/>
      <path id="Path_1532" data-name="Path 1532" d="M156.693,249.786,153.3,451.562l21.1-12.187,6.938-203.815Z" transform="translate(-7.721 -98.151)" fill="#fafafa"/>
      <path id="Path_1533" data-name="Path 1533" d="M174.108,240.451,167.17,444.266,188.2,432.14l10.62-205.96Z" transform="translate(-0.489 -103.042)" fill="#370c50"/>
      <path id="Path_1534" data-name="Path 1534" d="M145.958,255.281a13.434,13.434,0,0,1-6.588,1.521V456.676a13.434,13.434,0,0,0,6.588-1.521l14.606-8.429,3.393-201.776Z" transform="translate(-14.985 -93.255)" fill="#370c50"/>
      <path id="Path_1535" data-name="Path 1535" d="M194.74,429.884l14.241-8.231a16.432,16.432,0,0,0,7.257-11.381L234.1,207.34,209.24,221.687Z" transform="translate(13.888 -112.867)" fill="#370c50"/>
      <path id="Path_1536" data-name="Path 1536" d="M191.61,231.087l-10.62,205.96,20.92-12.08,14.5-208.2Z" transform="translate(6.718 -107.949)" fill="#fafafa"/>
      <path id="Path_1537" data-name="Path 1537" d="M131.668,249.786l3.393,201.776-21.1-12.187L107.02,235.56Z" transform="translate(-31.855 -98.151)" fill="#370c50"/>
      <path id="Path_1538" data-name="Path 1538" d="M115.494,240.451l6.938,203.815L101.405,432.14,90.77,226.18Z" transform="translate(-40.328 -103.042)" fill="#e6e6e6"/>
      <path id="Path_1539" data-name="Path 1539" d="M141.164,255.281a13.51,13.51,0,0,0,6.588,1.521V456.676a13.525,13.525,0,0,1-6.588-1.521l-14.591-8.429L123.18,244.95Z" transform="translate(-23.428 -93.255)" fill="#e6e6e6"/>
      <path id="Path_1540" data-name="Path 1540" d="M97.49,429.884l-14.241-8.231a16.386,16.386,0,0,1-7.257-11.381L58.13,207.34l24.876,14.347Z" transform="translate(-57.349 -112.867)" fill="#e6e6e6"/>
      <path id="Path_1541" data-name="Path 1541" d="M99.265,231.087,109.9,437.047l-20.92-12.08-14.5-208.2Z" transform="translate(-48.823 -107.949)" fill="#370c50"/>
      <path id="Path_1544" data-name="Path 1544" d="M143.885,229.1a12.826,12.826,0,1,1-13.769-19.9,12.841,12.841,0,0,0,10.407,20.357,12.372,12.372,0,0,0,3.362-.456Z" transform="translate(-24.734 -111.897)" fill="#e0e0e0"/>
      <path id="Path_1545" data-name="Path 1545" d="M151.538,224.061A8.353,8.353,0,1,1,136.2,220.47a8.277,8.277,0,0,0,2.1,4.7,8.383,8.383,0,0,0,11.807.578A8.779,8.779,0,0,0,151.538,224.061Z" transform="translate(-17.325 -106.02)" fill="#e0e0e0"/>
      <path id="Path_1546" data-name="Path 1546" d="M120.262,182.89a12.826,12.826,0,1,1-23.491,5.782,12.826,12.826,0,0,0,23.491-5.782Z" transform="translate(-37.231 -125.617)" fill="#e0e0e0"/>
      <path id="Path_1547" data-name="Path 1547" d="M104.53,190.9a8.353,8.353,0,1,1-15.595,2.252,8.2,8.2,0,0,0,3.682,3.606,8.353,8.353,0,0,0,11.2-3.773,8.672,8.672,0,0,0,.715-2.084Z" transform="translate(-41.368 -121.44)" fill="#e0e0e0"/>
      <path id="Path_1548" data-name="Path 1548" d="M195.254,205.479a12.841,12.841,0,1,1-23.278-6.649,12.826,12.826,0,0,0,20.951,9.129A13.692,13.692,0,0,0,195.254,205.479Z" transform="translate(0.776 -117.304)" fill="#e0e0e0"/>
      <path id="Path_1549" data-name="Path 1549" d="M201.3,200.451a8.353,8.353,0,1,1-15.336-3.591,8.292,8.292,0,0,0,2.115,4.777,8.383,8.383,0,0,0,11.807.578A8.688,8.688,0,0,0,201.3,200.451Z" transform="translate(8.623 -118.332)" fill="#e0e0e0"/>
      <path id="Path_1550" data-name="Path 1550" d="M175.68,189.94a8.353,8.353,0,1,1-11.32,10.97,8.353,8.353,0,0,0,11.959-8.855A8.125,8.125,0,0,0,175.68,189.94Z" transform="translate(-1.954 -121.94)" fill="#e0e0e0"/>
    </g>
    <g id="freepik--Film--inject-304" transform="translate(328.95 38.55)">
      <path id="Path_1551" data-name="Path 1551" d="M412.872,88.345c-19.6-10.924-46.481-9.129-76.073,7.988C276.655,130.946,228.06,215.22,228.06,284.507c0,38.447,14.971,64.19,38.539,73.608,18.927,7.607,43.407,4.564,70.124-10.863,60.006-34.659,108.663-118.933,108.663-188.22C445.385,123.993,432.94,99.482,412.872,88.345Zm1.065,42.023c-6.086,6.664-12.537,13.937-18.973,21.59a595.3,595.3,0,0,0-36.515,47.88c-1.522,2.282-3.043,4.488-4.351,6.558a7.227,7.227,0,0,0-5.082-1.385c.456-1.613.913-3.3,1.384-5.066l-2.358,3.575a7.257,7.257,0,0,0-5.082-1.385c.639-2.191,1.278-4.564,1.917-7.06A461.8,461.8,0,0,0,355.665,140.3c1.278-8.916,2.237-17.71,2.952-25.865,14.667-3.956,27.751-2.571,38.128,3.469a40.988,40.988,0,0,1,17.192,12.415ZM265.534,209.7c11.274-26.58,28.832-51.73,49.387-69.987.228,2.556.472,5.143.776,7.744,1.735-1.674,3.484-3.3,5.28-4.884.624,7.333,1.521,15.047,2.845,22.457a226.087,226.087,0,0,0,10.8,42.266c.624,1.75,1.339,3.362,1.9,4.853a35,35,0,0,0-5.082,7.257c-1.354-.5-2.769-1.05-4.291-1.521a135.594,135.594,0,0,0-36.606-5.645,163.922,163.922,0,0,0-18.973.32c.456-1.08.928-2.176,1.4-3.241-2.51.03-4.99.167-7.44.335Zm11.35,114.779a42.973,42.973,0,0,1-4.914-4.93l-1.111,2.069c-11.837-10.057-18.988-27.386-18.988-50.847,0-1.734.091-3.53.091-5.279,6.588-2.237,13.693-4.808,20.89-7.744a312.2,312.2,0,0,0,43.179-21.818c1.993-1.248,3.895-2.434,5.645-3.621a10.742,10.742,0,0,0,1.75,5.645c1.521-.943,2.936-1.856,4.291-2.769a10.514,10.514,0,0,0,1.9,5.858c-1.521,1.887-3.043,3.986-4.686,6.192-10.087,13.8-22.32,32.316-33.351,51.167-5.234,8.748-10.163,17.558-14.7,26.032Zm65.91-1.826c-10.65,6.177-21.042,9.859-30.429,11,.563-1.43,1.126-2.876,1.674-4.321a57.574,57.574,0,0,1-7.714,1.445c3.423-8.657,6.755-17.831,9.935-27.173a555.01,555.01,0,0,0,15.96-55.807c.548-2.419.958-4.762,1.43-6.953a17.252,17.252,0,0,0,3.18-1.521,21.114,21.114,0,0,0,3.043-2.16h0a46.136,46.136,0,0,0,1.521,5.31,2.381,2.381,0,0,0,.122.441c.426-.2.852-.441,1.293-.685a20.118,20.118,0,0,0,3.043-2.16h.076a46.214,46.214,0,0,0,1.43,5.325,183.851,183.851,0,0,0,16.021,37.276A160.794,160.794,0,0,0,373.3,298.4a140.323,140.323,0,0,1-30.505,24.252Zm60.265-78.066c-.137.32-.3.639-.472.959a125.15,125.15,0,0,0-14.606-9.129c-1.111-.624-2.267-1.217-3.408-1.8a125.018,125.018,0,0,0-23.978-7.942c-1.6-.365-3.18-.639-4.564-.822.228-.533.411-1.05.593-1.521l-2.039-.472a42.393,42.393,0,0,0-4.564-.806,25.424,25.424,0,0,0,1.9-8.079c1.75-.822,3.667-1.841,5.569-2.845a376.89,376.89,0,0,0,43.27-28.1c7.151-5.31,14.21-10.955,20.8-16.325,0,1.75.091,3.454.091,5.188v2.526l5.979-4.838v5.173c0,23.385-7.151,49.067-18.973,72.756a65.326,65.326,0,0,0-5.6-3.971Z" transform="translate(-228.06 -16.152)" fill="#ba68c8"/>
      <path id="Path_1552" data-name="Path 1552" d="M412.872,88.345c-19.6-10.924-46.481-9.129-76.073,7.988C276.655,130.946,228.06,215.22,228.06,284.507c0,38.447,14.971,64.19,38.539,73.608,18.927,7.607,43.407,4.564,70.124-10.863,60.006-34.659,108.663-118.933,108.663-188.22C445.385,123.993,432.94,99.482,412.872,88.345Zm1.065,42.023c-6.086,6.664-12.537,13.937-18.973,21.59a595.3,595.3,0,0,0-36.515,47.88c-1.522,2.282-3.043,4.488-4.351,6.558a7.227,7.227,0,0,0-5.082-1.385c.456-1.613.913-3.3,1.384-5.066l-2.358,3.575a7.257,7.257,0,0,0-5.082-1.385c.639-2.191,1.278-4.564,1.917-7.06A461.8,461.8,0,0,0,355.665,140.3c1.278-8.916,2.237-17.71,2.952-25.865,14.667-3.956,27.751-2.571,38.128,3.469a40.988,40.988,0,0,1,17.192,12.415ZM265.534,209.7c11.274-26.58,28.832-51.73,49.387-69.987.228,2.556.472,5.143.776,7.744,1.735-1.674,3.484-3.3,5.28-4.884.624,7.333,1.521,15.047,2.845,22.457a226.087,226.087,0,0,0,10.8,42.266c.624,1.75,1.339,3.362,1.9,4.853a35,35,0,0,0-5.082,7.257c-1.354-.5-2.769-1.05-4.291-1.521a135.594,135.594,0,0,0-36.606-5.645,163.922,163.922,0,0,0-18.973.32c.456-1.08.928-2.176,1.4-3.241-2.51.03-4.99.167-7.44.335Zm11.35,114.779a42.973,42.973,0,0,1-4.914-4.93l-1.111,2.069c-11.837-10.057-18.988-27.386-18.988-50.847,0-1.734.091-3.53.091-5.279,6.588-2.237,13.693-4.808,20.89-7.744a312.2,312.2,0,0,0,43.179-21.818c1.993-1.248,3.895-2.434,5.645-3.621a10.742,10.742,0,0,0,1.75,5.645c1.521-.943,2.936-1.856,4.291-2.769a10.514,10.514,0,0,0,1.9,5.858c-1.521,1.887-3.043,3.986-4.686,6.192-10.087,13.8-22.32,32.316-33.351,51.167-5.234,8.748-10.163,17.558-14.7,26.032Zm65.91-1.826c-10.65,6.177-21.042,9.859-30.429,11,.563-1.43,1.126-2.876,1.674-4.321a57.574,57.574,0,0,1-7.714,1.445c3.423-8.657,6.755-17.831,9.935-27.173a555.01,555.01,0,0,0,15.96-55.807c.548-2.419.958-4.762,1.43-6.953a17.252,17.252,0,0,0,3.18-1.521,21.114,21.114,0,0,0,3.043-2.16h0a46.136,46.136,0,0,0,1.521,5.31,2.381,2.381,0,0,0,.122.441c.426-.2.852-.441,1.293-.685a20.118,20.118,0,0,0,3.043-2.16h.076a46.214,46.214,0,0,0,1.43,5.325,183.851,183.851,0,0,0,16.021,37.276A160.794,160.794,0,0,0,373.3,298.4a140.323,140.323,0,0,1-30.505,24.252Zm60.265-78.066c-.137.32-.3.639-.472.959a125.15,125.15,0,0,0-14.606-9.129c-1.111-.624-2.267-1.217-3.408-1.8a125.018,125.018,0,0,0-23.978-7.942c-1.6-.365-3.18-.639-4.564-.822.228-.533.411-1.05.593-1.521l-2.039-.472a42.393,42.393,0,0,0-4.564-.806,25.424,25.424,0,0,0,1.9-8.079c1.75-.822,3.667-1.841,5.569-2.845a376.89,376.89,0,0,0,43.27-28.1c7.151-5.31,14.21-10.955,20.8-16.325,0,1.75.091,3.454.091,5.188v2.526l5.979-4.838v5.173c0,23.385-7.151,49.067-18.973,72.756a65.326,65.326,0,0,0-5.6-3.971Z" transform="translate(-228.06 -16.152)" fill="#fff" opacity="0.4"/>
      <path id="Path_1553" data-name="Path 1553" d="M410.817,87.371c-18.912-7.607-43.392-4.564-70.109,10.863C280.687,132.847,232,217.106,232,286.408c0,34.994,12.461,59.535,32.514,70.733,19.612,10.924,46.5,9.129,76.164-8,60.006-34.644,108.663-118.9,108.663-188.2C449.371,122.486,434.354,96.728,410.817,87.371Zm-56.294,135.9a25.033,25.033,0,0,0,1.308-6.481c1.734-.837,3.651-1.841,5.553-2.86a377.32,377.32,0,0,0,43.286-28.086c5.021-3.743,10-7.607,14.819-11.487l5.979-4.838v5.173c0,23.385-7.151,49.067-18.973,72.756-1.765-1.308-3.636-2.586-5.568-3.834-2.891-1.856-5.934-3.636-9.038-5.34s-6.253-3.256-9.448-4.656a125.018,125.018,0,0,0-23.978-7.942c-1.6-.365-3.18-.639-4.564-.822a15.43,15.43,0,0,0,.624-1.628Zm57.359-93.874c-6.086,6.664-12.537,13.937-18.973,21.59a595.287,595.287,0,0,0-36.515,47.88c-1.522,2.282-3.043,4.488-4.352,6.558a7.227,7.227,0,0,0-5.082-1.384c.456-1.613.913-3.3,1.384-5.067.167-.654.335-1.324.517-1.993A462.665,462.665,0,0,0,359.651,142.2c1.278-8.885,2.221-17.695,2.936-25.865,11.959-3.226,22.822-2.891,32.1.609a40.988,40.988,0,0,1,17.192,12.4ZM340.739,241.267a20.114,20.114,0,0,0,3.043-2.16h.076a46.249,46.249,0,0,0,1.43,5.325,183.854,183.854,0,0,0,16.036,37.261,160.77,160.77,0,0,0,9.92,15.732,140.326,140.326,0,0,1-30.429,24.206c-10.65,6.177-21.042,9.859-30.429,11,.563-1.43,1.126-2.876,1.674-4.321,2.845-7.379,5.6-15.062,8.262-22.822a550.779,550.779,0,0,0,15.96-55.792c.548-2.434.943-4.762,1.415-6.968a11.484,11.484,0,0,0,1.887-.776,7.654,7.654,0,0,1,1.156-.73Zm-84.882,31.4c0-1.75.091-3.545.091-5.28,6.588-2.252,13.693-4.823,20.874-7.744a314.118,314.118,0,0,0,43.194-21.818l1.354-.852c1.521-.943,2.936-1.856,4.291-2.769a10.512,10.512,0,0,0,1.9,5.858c-1.521,1.887-3.043,3.986-4.686,6.192-10.087,13.8-22.32,32.316-33.35,51.167-5.234,8.794-10.163,17.6-14.7,26.078a42.964,42.964,0,0,1-4.914-4.93c-8.87-10.437-14.058-26.032-14.058-45.948Zm63.065-131.028c.624,7.333,1.521,15.047,2.845,22.457a226.092,226.092,0,0,0,10.8,42.266c.624,1.75,1.339,3.362,1.9,4.853a34.994,34.994,0,0,0-5.082,7.257c-1.354-.5-2.769-1.05-4.291-1.521a135.593,135.593,0,0,0-36.606-5.645,163.925,163.925,0,0,0-18.973.319c.456-1.08.928-2.176,1.4-3.241a201.44,201.44,0,0,1,42.723-61.832c1.734-1.75,3.56-3.378,5.279-4.96Z" transform="translate(-226.005 -15.177)" fill="#370c50"/>
      <path id="Path_1555" data-name="Path 1555" d="M314.568,188.338c-1.521,1.887-3.043,3.986-4.686,6.192-10.087,13.8-22.32,32.316-33.35,51.167-5.234,8.794-10.163,17.6-14.7,26.078a42.967,42.967,0,0,1-4.914-4.93c4.214-7.851,8.764-15.93,13.587-24.024,11.031-18.836,23.263-37.352,33.35-51.167,1.521-2.191,3.165-4.306,4.671-6.177l-.152-.228c1.521-.943,2.936-1.856,4.291-2.769A10.513,10.513,0,0,0,314.568,188.338Z" transform="translate(-213.011 36.504)" fill="#ba68c8"/>
      <path id="Path_1556" data-name="Path 1556" d="M314.568,188.338c-1.521,1.887-3.043,3.986-4.686,6.192-10.087,13.8-22.32,32.316-33.35,51.167-5.234,8.794-10.163,17.6-14.7,26.078a42.967,42.967,0,0,1-4.914-4.93c4.214-7.851,8.764-15.93,13.587-24.024,11.031-18.836,23.263-37.352,33.35-51.167,1.521-2.191,3.165-4.306,4.671-6.177l-.152-.228c1.521-.943,2.936-1.856,4.291-2.769A10.513,10.513,0,0,0,314.568,188.338Z" transform="translate(-213.011 36.504)" opacity="0.4"/>
      <path id="Path_1557" data-name="Path 1557" d="M344.368,244.063a140.322,140.322,0,0,1-30.429,24.206c-10.65,6.177-21.042,9.859-30.429,11,.563-1.43,1.126-2.876,1.674-4.321a89.551,89.551,0,0,0,22.822-9.555,140.615,140.615,0,0,0,30.429-24.207,166.457,166.457,0,0,1-10.057-15.717,183.645,183.645,0,0,1-15.823-36.926c.426-.2.852-.441,1.293-.685a20.113,20.113,0,0,0,3.043-2.16h.076a46.225,46.225,0,0,0,1.43,5.325,183.857,183.857,0,0,0,16.067,37.306A160.79,160.79,0,0,0,344.368,244.063Z" transform="translate(-199.145 38.183)" fill="#ba68c8"/>
      <path id="Path_1558" data-name="Path 1558" d="M344.368,225.046a140.325,140.325,0,0,1-30.429,24.206c-10.65,6.177-21.042,9.859-30.429,11,.563-1.43,1.126-2.876,1.674-4.321a89.549,89.549,0,0,0,22.822-9.555,140.614,140.614,0,0,0,30.429-24.206" transform="translate(-199.145 57.201)" opacity="0.3"/>
      <path id="Path_1559" data-name="Path 1559" d="M324.473,228.347A183.857,183.857,0,0,1,308.512,191a46.22,46.22,0,0,1-1.43-5.325h-.076a20.109,20.109,0,0,1-3.043,2.16c-.441.243-.867.487-1.293.685a183.64,183.64,0,0,0,15.717,36.972,166.438,166.438,0,0,0,9.92,15.717l6.086,2.876a160.788,160.788,0,0,1-9.92-15.732Z" transform="translate(-189.154 38.167)" opacity="0.4"/>
      <path id="Path_1560" data-name="Path 1560" d="M340.713,185.615a125.021,125.021,0,0,0-23.978-7.942c-1.6-.365-3.18-.639-4.564-.822.228-.533.411-1.05.593-1.521a128.733,128.733,0,0,1,27.949,10.285Z" transform="translate(-184.2 32.775)" fill="#ba68c8"/>
      <path id="Path_1561" data-name="Path 1561" d="M367.621,145.133c0,23.385-7.151,49.067-18.973,72.756-1.765-1.308-3.636-2.586-5.569-3.834,11.137-22.563,18-46.891,18.486-69.257l5.979-4.838C367.545,141.71,367.621,143.4,367.621,145.133Z" transform="translate(-168.082 14.331)" fill="#ba68c8"/>
      <path id="Path_1562" data-name="Path 1562" d="M340.713,185.615a125.021,125.021,0,0,0-23.978-7.942c-1.6-.365-3.18-.639-4.564-.822.228-.533.411-1.05.593-1.521a128.733,128.733,0,0,1,27.949,10.285Z" transform="translate(-184.2 32.775)" opacity="0.4"/>
      <path id="Path_1563" data-name="Path 1563" d="M367.621,145.133c0,23.385-7.151,49.067-18.973,72.756-1.765-1.308-3.636-2.586-5.569-3.834,11.137-22.563,18-46.891,18.486-69.257l5.979-4.838C367.545,141.71,367.621,143.4,367.621,145.133Z" transform="translate(-168.082 14.331)" opacity="0.3"/>
      <path id="Path_1564" data-name="Path 1564" d="M372.481,117.85c-6.086,6.664-12.537,13.937-18.973,21.59a595.307,595.307,0,0,0-36.515,47.88c-1.522,2.282-3.043,4.488-4.351,6.558a7.227,7.227,0,0,0-5.082-1.385c.456-1.613.913-3.3,1.384-5.066l2.008-3.043a598.836,598.836,0,0,1,36.515-47.865c6.436-7.607,12.856-14.956,18.988-21.589a41.75,41.75,0,0,0-11.183-9.509,40.988,40.988,0,0,1,17.208,12.43Z" transform="translate(-186.604 -3.68)" fill="#ba68c8"/>
      <path id="Path_1565" data-name="Path 1565" d="M372.481,117.85c-6.086,6.664-12.537,13.937-18.973,21.59a595.307,595.307,0,0,0-36.515,47.88c-1.522,2.282-3.043,4.488-4.351,6.558a7.227,7.227,0,0,0-5.082-1.385c.456-1.613.913-3.3,1.384-5.066l2.008-3.043a598.836,598.836,0,0,1,36.515-47.865c6.436-7.607,12.856-14.956,18.988-21.589a41.75,41.75,0,0,0-11.183-9.509,40.988,40.988,0,0,1,17.208,12.43Z" transform="translate(-186.604 -3.68)" opacity="0.4"/>
      <path id="Path_1566" data-name="Path 1566" d="M321.611,191.237a34.994,34.994,0,0,0-5.082,7.257c-1.354-.5-2.769-1.05-4.291-1.521a135.591,135.591,0,0,0-36.606-5.645,163.932,163.932,0,0,0-18.973.32c.456-1.08.928-2.176,1.4-3.241,3.834-.137,7.7-.122,11.533,0a136.29,136.29,0,0,1,36.606,5.645c1.522.5,2.952,1.05,4.306,1.521a34.492,34.492,0,0,1,5.082-7.257c-.563-1.521-1.278-3.043-1.917-4.853a226.9,226.9,0,0,1-10.8-42.281c-.822-4.823-1.521-9.783-2.084-14.7,1.734-1.674,3.484-3.3,5.279-4.884.624,7.333,1.522,15.047,2.845,22.457a226.091,226.091,0,0,0,10.8,42.266C320.333,188.134,321.079,189.746,321.611,191.237Z" transform="translate(-213.146 4.757)" fill="#ba68c8"/>
      <path id="Path_1567" data-name="Path 1567" d="M315.586,165.5a34.491,34.491,0,0,0-5.082,7.257c-1.354-.517-2.784-1.065-4.306-1.521a136.295,136.295,0,0,0-36.606-5.645c-3.834-.167-7.7-.183-11.533,0-.472,1.065-.943,2.16-1.4,3.241a163.921,163.921,0,0,1,18.973-.319,135.6,135.6,0,0,1,36.606,5.645c1.522.5,2.936,1.05,4.291,1.521a35,35,0,0,1,5.082-7.257Z" transform="translate(-213.146 27.631)" opacity="0.4"/>
      <path id="Path_1568" data-name="Path 1568" d="M300.464,188.356c-.563-1.521-1.278-3.043-1.917-4.853a226.891,226.891,0,0,1-10.8-42.281c-.822-4.823-1.521-9.783-2.084-14.7,1.734-1.674,3.484-3.3,5.279-4.884.624,7.333,1.522,15.047,2.845,22.457a226.081,226.081,0,0,0,10.8,42.266c.624,1.75,1.339,3.362,1.9,4.853" transform="translate(-198.024 4.778)" opacity="0.3"/>
      <path id="Path_1569" data-name="Path 1569" d="M382.574,114.98l45.872,26.458a35,35,0,0,0-4.564-2.16c-13.343-5.31-30.6-3.21-49.432,7.607-42.3,24.419-76.575,83.833-76.575,132.671,0,23.917,8.246,40.866,21.6,49.082l-45.324-26.215h0c-13.784-8.033-22.335-25.135-22.335-49.478,0-48.839,34.294-108.237,76.59-132.656,18.836-10.878,36.089-12.978,49.417-7.607A37.217,37.217,0,0,1,382.513,115Z" transform="translate(-215.67 -1.373)" fill="#455a64"/>
      <path id="Path_1570" data-name="Path 1570" d="M275.458,292.669C263.666,285.807,257.2,270.714,257.2,250.2c0-46.192,32.544-102.562,72.543-125.657,10.65-6.086,21.057-9.357,30.171-9.357a33.091,33.091,0,0,1,12.172,2.206,29.439,29.439,0,0,1,3.621,1.8l14.621,8.444a90.071,90.071,0,0,0-22.67,9.494c-44.457,25.682-80.637,88.336-80.637,139.685a90.7,90.7,0,0,0,3.043,24.343Z" transform="translate(-212.865 1.414)" fill="#37474f"/>
      <path id="Path_1571" data-name="Path 1571" d="M408.127,130.151c-13.328-5.325-30.581-3.21-49.417,7.607-42.3,24.435-76.59,83.817-76.59,132.671,0,24.693,8.779,41.947,22.928,49.843,13.815,7.7,32.757,6.436,53.662-5.645,42.3-24.343,76.59-83.8,76.59-132.641C435.3,154.935,424.742,136.784,408.127,130.151Z" transform="translate(-199.87 7.754)" fill="#37474f"/>
      <path id="Path_1572" data-name="Path 1572" d="M252,203.73l46.07,26.6c.183-3.5.548-7.044,1.05-10.65l-46.055-26.6A102.872,102.872,0,0,0,252,203.73Z" transform="translate(-215.576 42.031)" fill="#455a64"/>
      <path id="Path_1573" data-name="Path 1573" d="M292.49,125.578l46.055,26.6c2.8-2.237,5.66-4.336,8.551-6.284l-46.055-26.58C298.15,121.242,295.289,123.4,292.49,125.578Z" transform="translate(-194.462 3.563)" fill="#455a64"/>
      <path id="Path_1574" data-name="Path 1574" d="M280.246,137.67c-2.084,2.5-4.093,5.082-6.086,7.714l46.07,26.6q2.921-3.971,6.086-7.729Z" transform="translate(-204.021 13.137)" fill="#455a64"/>
      <path id="Path_1575" data-name="Path 1575" d="M263.245,163.3q-2.1,4.427-3.925,8.946l46.055,26.6q1.826-4.564,3.925-8.946Z" transform="translate(-211.759 26.502)" fill="#455a64"/>
      <path id="Path_1576" data-name="Path 1576" d="M385.4,134.964a33.146,33.146,0,0,0-4.564-2.176c-12.659-5.036-28.771-3.408-46.465,6.086,6.725-3.7,17.147-9.3,28.908-16.584Z" transform="translate(-172.624 5.117)" fill="#263238"/>
      <path id="Path_1577" data-name="Path 1577" d="M348.239,184.108C370.255,171.739,458.8,127.89,458.8,65.145l-46.039-26.6c0,62.745-88.549,106.594-110.565,118.963l8.185,4.717,6.953-4.564,30.992,17.908-8.049,3.941Z" transform="translate(-189.399 -38.55)" fill="#455a64"/>
      <path id="Path_1578" data-name="Path 1578" d="M312.15,153.452C343.1,136.3,405.309,99.06,413.981,46.63l32.042,18.516c-3.652,51.958-74.2,90.527-101.192,105.285l-1.689.928Z" transform="translate(-184.21 -34.337)" fill="#37474f"/>
      <path id="Path_1579" data-name="Path 1579" d="M352.275,85q-3.484,3.165-7.105,6.192l46.161,26.519c2.4-2.008,4.777-4.078,7.09-6.208Z" transform="translate(-166.992 -14.328)" fill="#455a64"/>
      <path id="Path_1580" data-name="Path 1580" d="M328.8,103.06c-2.936,1.871-5.827,3.652-8.611,5.34l46.176,26.519q4.169-2.526,8.611-5.34Z" transform="translate(-180.018 -4.911)" fill="#455a64"/>
      <path id="Path_1581" data-name="Path 1581" d="M369.487,63.24Q367.3,67.1,364.74,70.847l46.115,26.489c1.689-2.48,3.271-4.99,4.732-7.607Z" transform="translate(-156.787 -25.675)" fill="#455a64"/>
      <path id="Path_1582" data-name="Path 1582" d="M316.775,116.84c-7.212,3.956-13.5,8.292-13.5,8.292L333.709,142.7s6.375-3.743,14.058-7.957Z" transform="translate(-188.836 2.275)" fill="#37474f"/>
      <path id="Path_1583" data-name="Path 1583" d="M440.642,104.345c-19.6-10.924-46.481-9.129-76.149,7.988C304.486,146.992,255.83,231.266,255.83,300.553c0,38.447,14.971,64.19,38.554,73.608,18.912,7.607,43.392,4.564,70.109-10.863,60.022-34.659,108.678-118.917,108.678-188.22C473.171,140.069,460.71,115.559,440.642,104.345Zm1.08,42.023c-6.086,6.664-12.552,13.937-18.988,21.59a598.9,598.9,0,0,0-36.515,47.88c-1.522,2.282-3.043,4.488-4.351,6.558a7.227,7.227,0,0,0-5.082-1.385c.456-1.613.928-3.3,1.385-5.066-.822,1.232-1.6,2.419-2.343,3.575a7.273,7.273,0,0,0-5.082-1.385c.639-2.191,1.278-4.564,1.917-7.06A464.847,464.847,0,0,0,383.45,156.3c1.278-8.916,2.221-17.71,2.936-25.865,14.667-3.956,27.751-2.571,38.143,3.469A41.171,41.171,0,0,1,441.707,146.4ZM293.3,225.7c11.289-26.58,28.908-51.73,49.387-69.987.228,2.556.487,5.143.776,7.744q2.6-2.51,5.28-4.884c.624,7.333,1.521,15.047,2.845,22.457a224.816,224.816,0,0,0,10.818,42.266c.624,1.75,1.324,3.362,1.9,4.853a35.132,35.132,0,0,0-5.1,7.257c-1.339-.5-2.769-1.05-4.29-1.521a135.6,135.6,0,0,0-36.606-5.645,163.923,163.923,0,0,0-18.973.32c.456-1.08.928-2.176,1.415-3.241-2.51.107-4.99.243-7.455.411Zm11.365,114.779a41.894,41.894,0,0,1-4.93-4.93l-1.111,2.069c-11.837-10.057-18.973-27.462-18.973-50.847,0-1.735.091-3.53.091-5.28,6.573-2.237,13.693-4.808,20.874-7.744a313.268,313.268,0,0,0,43.194-21.818c1.978-1.248,3.88-2.434,5.645-3.621a10.742,10.742,0,0,0,1.734,5.645c1.521-.943,2.936-1.856,4.291-2.769a10.512,10.512,0,0,0,1.9,5.858c-1.521,1.887-3.043,3.986-4.671,6.192-10.1,13.8-22.335,32.316-33.35,51.167-5.249,8.824-10.163,17.634-14.7,26.108Zm65.91-1.826c-10.726,6.177-21.042,9.859-30.505,11,.563-1.43,1.141-2.876,1.689-4.321a58.469,58.469,0,0,1-7.714,1.445c3.408-8.657,6.74-17.832,9.92-27.173a547.059,547.059,0,0,0,15.96-55.807c.563-2.419.958-4.762,1.43-6.953a16.737,16.737,0,0,0,3.18-1.521,20.345,20.345,0,0,0,3.043-2.161h.076a49.446,49.446,0,0,0,1.445,5.31l.137.441c.411-.2.837-.441,1.293-.685a20,20,0,0,0,3.043-2.16h.091a43.333,43.333,0,0,0,1.43,5.325,182.164,182.164,0,0,0,15.96,37.352,163.686,163.686,0,0,0,9.9,15.732,140.61,140.61,0,0,1-30.383,24.176Zm60.265-78.066c-.152.32-.32.639-.487.958a125.16,125.16,0,0,0-14.606-9.129c-1.111-.624-2.252-1.217-3.393-1.8a124.085,124.085,0,0,0-23.993-7.942c-1.6-.365-3.18-.639-4.564-.822q.334-.746.593-1.521l-2.024-.578a42.809,42.809,0,0,0-4.564-.806,26.261,26.261,0,0,0,1.9-8.079c1.734-.822,3.652-1.841,5.553-2.845a376.906,376.906,0,0,0,43.27-28.1c7.151-5.31,14.21-10.954,20.8-16.325,0,1.75.091,3.454.091,5.188v2.526c2.039-1.628,4.032-3.256,5.995-4.838v5.173c0,23.385-7.136,49.067-18.973,72.756q-2.693-1.917-5.6-3.788Z" transform="translate(-213.579 -7.809)" fill="#ba68c8"/>
      <path id="Path_1584" data-name="Path 1584" d="M440.642,104.345c-19.6-10.924-46.481-9.129-76.149,7.988C304.486,146.992,255.83,231.266,255.83,300.553c0,38.447,14.971,64.19,38.554,73.608,18.912,7.607,43.392,4.564,70.109-10.863,60.022-34.659,108.678-118.917,108.678-188.22C473.171,140.069,460.71,115.559,440.642,104.345Zm1.08,42.023c-6.086,6.664-12.552,13.937-18.988,21.59a598.9,598.9,0,0,0-36.515,47.88c-1.522,2.282-3.043,4.488-4.351,6.558a7.227,7.227,0,0,0-5.082-1.385c.456-1.613.928-3.3,1.385-5.066-.822,1.232-1.6,2.419-2.343,3.575a7.273,7.273,0,0,0-5.082-1.385c.639-2.191,1.278-4.564,1.917-7.06A464.847,464.847,0,0,0,383.45,156.3c1.278-8.916,2.221-17.71,2.936-25.865,14.667-3.956,27.751-2.571,38.143,3.469A41.171,41.171,0,0,1,441.707,146.4ZM293.3,225.7c11.289-26.58,28.908-51.73,49.387-69.987.228,2.556.487,5.143.776,7.744q2.6-2.51,5.28-4.884c.624,7.333,1.521,15.047,2.845,22.457a224.816,224.816,0,0,0,10.818,42.266c.624,1.75,1.324,3.362,1.9,4.853a35.132,35.132,0,0,0-5.1,7.257c-1.339-.5-2.769-1.05-4.29-1.521a135.6,135.6,0,0,0-36.606-5.645,163.923,163.923,0,0,0-18.973.32c.456-1.08.928-2.176,1.415-3.241-2.51.107-4.99.243-7.455.411Zm11.365,114.779a41.894,41.894,0,0,1-4.93-4.93l-1.111,2.069c-11.837-10.057-18.973-27.462-18.973-50.847,0-1.735.091-3.53.091-5.28,6.573-2.237,13.693-4.808,20.874-7.744a313.268,313.268,0,0,0,43.194-21.818c1.978-1.248,3.88-2.434,5.645-3.621a10.742,10.742,0,0,0,1.734,5.645c1.521-.943,2.936-1.856,4.291-2.769a10.512,10.512,0,0,0,1.9,5.858c-1.521,1.887-3.043,3.986-4.671,6.192-10.1,13.8-22.335,32.316-33.35,51.167-5.249,8.824-10.163,17.634-14.7,26.108Zm65.91-1.826c-10.726,6.177-21.042,9.859-30.505,11,.563-1.43,1.141-2.876,1.689-4.321a58.469,58.469,0,0,1-7.714,1.445c3.408-8.657,6.74-17.832,9.92-27.173a547.059,547.059,0,0,0,15.96-55.807c.563-2.419.958-4.762,1.43-6.953a16.737,16.737,0,0,0,3.18-1.521,20.345,20.345,0,0,0,3.043-2.161h.076a49.446,49.446,0,0,0,1.445,5.31l.137.441c.411-.2.837-.441,1.293-.685a20,20,0,0,0,3.043-2.16h.091a43.333,43.333,0,0,0,1.43,5.325,182.164,182.164,0,0,0,15.96,37.352,163.686,163.686,0,0,0,9.9,15.732,140.61,140.61,0,0,1-30.383,24.176Zm60.265-78.066c-.152.32-.32.639-.487.958a125.16,125.16,0,0,0-14.606-9.129c-1.111-.624-2.252-1.217-3.393-1.8a124.085,124.085,0,0,0-23.993-7.942c-1.6-.365-3.18-.639-4.564-.822q.334-.746.593-1.521l-2.024-.578a42.809,42.809,0,0,0-4.564-.806,26.261,26.261,0,0,0,1.9-8.079c1.734-.822,3.652-1.841,5.553-2.845a376.906,376.906,0,0,0,43.27-28.1c7.151-5.31,14.21-10.954,20.8-16.325,0,1.75.091,3.454.091,5.188v2.526c2.039-1.628,4.032-3.256,5.995-4.838v5.173c0,23.385-7.136,49.067-18.973,72.756q-2.693-1.917-5.6-3.788Z" transform="translate(-213.579 -7.809)" fill="#fff" opacity="0.4"/>
      <path id="Path_1585" data-name="Path 1585" d="M438.577,103.371c-18.912-7.607-43.392-4.564-70.109,10.863C308.446,148.893,259.79,233.151,259.79,302.454c0,34.994,12.461,59.535,32.529,70.733,19.6,10.924,46.481,9.129,76.149-8,60.006-34.644,108.663-118.9,108.663-188.2C477.131,138.562,462.16,112.8,438.577,103.371Zm-56.294,135.9a25.028,25.028,0,0,0,1.308-6.481c1.75-.837,3.667-1.841,5.569-2.86a377.343,377.343,0,0,0,43.27-28.086c5.021-3.743,10-7.607,14.819-11.487,2.039-1.628,4.032-3.256,5.995-4.838v5.173c0,23.385-7.136,49.067-18.973,72.756q-2.647-1.963-5.553-3.834c-2.906-1.856-5.949-3.636-9.053-5.34s-6.238-3.256-9.433-4.656a124.09,124.09,0,0,0-23.993-7.942c-1.6-.365-3.18-.639-4.564-.822q.343-.76.609-1.552Zm57.359-93.844c-6.086,6.664-12.552,13.937-18.988,21.59a598.931,598.931,0,0,0-36.515,47.88c-1.522,2.282-3.043,4.488-4.351,6.558a7.227,7.227,0,0,0-5.082-1.385c.456-1.613.928-3.3,1.384-5.066.183-.654.335-1.324.517-1.993A459.616,459.616,0,0,0,387.4,158.235c1.278-8.885,2.237-17.695,2.952-25.865,11.943-3.226,22.822-2.891,32.1.609a41.17,41.17,0,0,1,17.192,12.446ZM368.5,257.3a20,20,0,0,0,3.043-2.16h.091a43.342,43.342,0,0,0,1.43,5.325,182.161,182.161,0,0,0,15.96,37.352,163.673,163.673,0,0,0,9.9,15.732A140.614,140.614,0,0,1,368.5,337.752c-10.726,6.177-21.042,9.859-30.505,11,.563-1.43,1.141-2.876,1.689-4.321,2.83-7.379,5.584-15.062,8.246-22.822a550.757,550.757,0,0,0,15.96-55.792c.548-2.434.943-4.762,1.43-6.968a11.488,11.488,0,0,0,1.887-.776c.426-.289.928-.533,1.309-.776Zm-84.9,31.4c0-1.75.091-3.545.091-5.28,6.588-2.252,13.693-4.823,20.89-7.744a313.9,313.9,0,0,0,43.179-21.818l1.354-.852c1.522-.943,2.936-1.856,4.291-2.769a10.513,10.513,0,0,0,1.9,5.858c-1.521,1.887-3.043,3.986-4.671,6.192-10.1,13.8-22.335,32.316-33.35,51.167-5.249,8.794-10.163,17.6-14.7,26.078a41.9,41.9,0,0,1-4.93-4.93c-8.855-10.392-14.043-25.987-14.043-45.9Zm63.065-131.028c.624,7.333,1.521,15.047,2.845,22.457a224.809,224.809,0,0,0,10.818,42.266c.624,1.75,1.324,3.362,1.9,4.853a35.127,35.127,0,0,0-5.1,7.257c-1.339-.5-2.769-1.05-4.291-1.521a135.593,135.593,0,0,0-36.606-5.645,163.924,163.924,0,0,0-18.973.319c.456-1.08.928-2.176,1.415-3.241a201.413,201.413,0,0,1,42.708-61.832q2.617-2.541,5.295-4.914Z" transform="translate(-211.514 -6.834)" fill="#370c50"/>
      <path id="Path_1586" data-name="Path 1586" d="M342.338,204.388c-1.521,1.887-3.043,3.986-4.671,6.192-10.1,13.8-22.335,32.316-33.35,51.167-5.249,8.794-10.163,17.6-14.7,26.078a41.9,41.9,0,0,1-4.93-4.93c4.23-7.851,8.779-15.93,13.587-24.024,11.031-18.836,23.263-37.352,33.35-51.167,1.521-2.191,3.165-4.306,4.686-6.177l-.167-.228c1.522-.943,2.936-1.856,4.29-2.769a10.513,10.513,0,0,0,1.9,5.858Z" transform="translate(-198.53 44.873)" fill="#ba68c8"/>
      <path id="Path_1587" data-name="Path 1587" d="M342.338,204.388c-1.521,1.887-3.043,3.986-4.671,6.192-10.1,13.8-22.335,32.316-33.35,51.167-5.249,8.794-10.163,17.6-14.7,26.078a41.9,41.9,0,0,1-4.93-4.93c4.23-7.851,8.779-15.93,13.587-24.024,11.031-18.836,23.263-37.352,33.35-51.167,1.521-2.191,3.165-4.306,4.686-6.177l-.167-.228c1.522-.943,2.936-1.856,4.29-2.769a10.513,10.513,0,0,0,1.9,5.858Z" transform="translate(-198.53 44.873)" opacity="0.3"/>
      <path id="Path_1588" data-name="Path 1588" d="M372.165,260.113a140.612,140.612,0,0,1-30.429,24.206c-10.726,6.177-21.042,9.859-30.505,11,.563-1.43,1.141-2.876,1.689-4.321a89.768,89.768,0,0,0,22.822-9.555,141.051,141.051,0,0,0,30.429-24.206,163.447,163.447,0,0,1-9.935-15.717A183.546,183.546,0,0,1,340.427,204.6c.411-.2.837-.441,1.293-.685a20.009,20.009,0,0,0,3.043-2.16h.091a43.322,43.322,0,0,0,1.43,5.325,182.166,182.166,0,0,0,15.96,37.352,163.7,163.7,0,0,0,9.92,15.686Z" transform="translate(-184.69 46.552)" fill="#ba68c8"/>
      <path id="Path_1589" data-name="Path 1589" d="M372.165,241.1A140.614,140.614,0,0,1,341.735,265.3c-10.726,6.177-21.042,9.859-30.505,11,.563-1.43,1.141-2.876,1.689-4.321a89.768,89.768,0,0,0,22.822-9.555A141.052,141.052,0,0,0,366.17,238.22" transform="translate(-184.69 65.57)" opacity="0.2"/>
      <path id="Path_1590" data-name="Path 1590" d="M352.248,244.4a182.16,182.16,0,0,1-15.96-37.352,43.333,43.333,0,0,1-1.43-5.325h-.091a20.007,20.007,0,0,1-3.043,2.16c-.456.243-.883.487-1.293.685a183.557,183.557,0,0,0,15.808,36.926,163.447,163.447,0,0,0,9.935,15.717l6.086,2.875A163.674,163.674,0,0,1,352.248,244.4Z" transform="translate(-174.678 46.537)" opacity="0.3"/>
      <path id="Path_1591" data-name="Path 1591" d="M368.5,201.665a124.089,124.089,0,0,0-23.993-7.942c-1.6-.365-3.18-.639-4.564-.822q.334-.746.593-1.521A129.122,129.122,0,0,1,368.5,201.665Z" transform="translate(-169.719 41.145)" fill="#ba68c8"/>
      <path id="Path_1592" data-name="Path 1592" d="M395.406,161.183c0,23.385-7.136,49.067-18.973,72.756q-2.647-1.963-5.553-3.834c11.122-22.563,18-46.891,18.471-69.257,2.039-1.628,4.032-3.256,5.995-4.838C395.315,157.76,395.406,159.449,395.406,161.183Z" transform="translate(-153.585 22.701)" fill="#ba68c8"/>
      <path id="Path_1593" data-name="Path 1593" d="M368.5,201.665a124.089,124.089,0,0,0-23.993-7.942c-1.6-.365-3.18-.639-4.564-.822q.334-.746.593-1.521A129.122,129.122,0,0,1,368.5,201.665Z" transform="translate(-169.719 41.145)" opacity="0.3"/>
      <path id="Path_1594" data-name="Path 1594" d="M395.406,161.183c0,23.385-7.136,49.067-18.973,72.756q-2.647-1.963-5.553-3.834c11.122-22.563,18-46.891,18.471-69.257,2.039-1.628,4.032-3.256,5.995-4.838C395.315,157.76,395.406,159.449,395.406,161.183Z" transform="translate(-153.585 22.701)" opacity="0.2"/>
      <path id="Path_1595" data-name="Path 1595" d="M400.256,133.9c-6.086,6.664-12.552,13.937-18.988,21.59a598.914,598.914,0,0,0-36.515,47.88c-1.522,2.282-3.043,4.488-4.351,6.558a7.227,7.227,0,0,0-5.082-1.385c.456-1.613.928-3.3,1.384-5.066l2.024-3.043a595.3,595.3,0,0,1,36.515-47.865c6.436-7.607,12.856-14.956,18.973-21.59a41.917,41.917,0,0,0-11.168-9.509,41.171,41.171,0,0,1,17.208,12.43Z" transform="translate(-172.128 4.69)" fill="#ba68c8"/>
      <path id="Path_1596" data-name="Path 1596" d="M400.256,133.9c-6.086,6.664-12.552,13.937-18.988,21.59a598.914,598.914,0,0,0-36.515,47.88c-1.522,2.282-3.043,4.488-4.351,6.558a7.227,7.227,0,0,0-5.082-1.385c.456-1.613.928-3.3,1.384-5.066l2.024-3.043a595.3,595.3,0,0,1,36.515-47.865c6.436-7.607,12.856-14.956,18.973-21.59a41.917,41.917,0,0,0-11.168-9.509,41.171,41.171,0,0,1,17.208,12.43Z" transform="translate(-172.128 4.69)" opacity="0.3"/>
      <path id="Path_1597" data-name="Path 1597" d="M349.4,207.282a35.13,35.13,0,0,0-5.1,7.257c-1.339-.5-2.769-1.05-4.291-1.521a135.591,135.591,0,0,0-36.606-5.645,163.922,163.922,0,0,0-18.973.319c.456-1.08.928-2.176,1.415-3.241,3.834-.137,7.7-.122,11.533,0a136.4,136.4,0,0,1,36.606,5.66c1.521.5,2.936,1.05,4.29,1.521a35,35,0,0,1,5.082-7.257c-.563-1.521-1.278-3.043-1.917-4.853a226.984,226.984,0,0,1-10.787-42.281c-.837-4.823-1.521-9.783-2.1-14.7q2.6-2.51,5.279-4.884c.624,7.333,1.521,15.047,2.845,22.457a224.816,224.816,0,0,0,10.817,42.266C348.118,204.178,348.818,205.791,349.4,207.282Z" transform="translate(-198.665 13.132)" fill="#ba68c8"/>
      <path id="Path_1598" data-name="Path 1598" d="M343.356,181.554a35,35,0,0,0-5.082,7.257c-1.354-.517-2.784-1.065-4.291-1.521a136.4,136.4,0,0,0-36.606-5.645c-3.834-.167-7.7-.183-11.533,0-.487,1.065-.959,2.16-1.415,3.241a163.926,163.926,0,0,1,18.973-.32,135.592,135.592,0,0,1,36.667,5.553c1.521.5,2.952,1.05,4.291,1.521a35.132,35.132,0,0,1,5.1-7.257Z" transform="translate(-198.665 36)" opacity="0.3"/>
      <path id="Path_1599" data-name="Path 1599" d="M328.234,204.406c-.563-1.521-1.278-3.043-1.917-4.853a226.992,226.992,0,0,1-10.787-42.281c-.837-4.823-1.521-9.783-2.1-14.7q2.6-2.51,5.279-4.884c.624,7.333,1.521,15.047,2.845,22.457a224.807,224.807,0,0,0,10.818,42.266c.624,1.75,1.324,3.362,1.9,4.853" transform="translate(-183.543 13.148)" opacity="0.2"/>
    </g>
    <g id="freepik--Characters--inject-304" transform="translate(292.892 302.089)">
      <path id="Path_1600" data-name="Path 1600" d="M270.307,392.26H256.72l2.176,13.252h0a2.48,2.48,0,0,0,1.324,1.643,7.318,7.318,0,0,0,6.557,0,2.434,2.434,0,0,0,1.324-1.643h0Z" transform="translate(-177.056 -117.643)" fill="#fafafa"/>
      <ellipse id="Ellipse_129" data-name="Ellipse 129" cx="6.816" cy="3.941" rx="6.816" ry="3.941" transform="translate(79.648 270.326)" fill="#fafafa"/>
      <path id="Path_1601" data-name="Path 1601" d="M224.887,365.84H211.3l2.176,13.252h0a2.465,2.465,0,0,0,1.324,1.628,7.227,7.227,0,0,0,6.558,0,2.465,2.465,0,0,0,1.324-1.628h0Z" transform="translate(-200.741 -131.42)" fill="#fafafa"/>
      <path id="Path_1602" data-name="Path 1602" d="M213.274,364.166c-2.663,1.521-2.663,4.032,0,5.569a10.651,10.651,0,0,0,9.646,0c2.678-1.522,2.678-4.032,0-5.569A10.65,10.65,0,0,0,213.274,364.166Z" transform="translate(-200.753 -132.895)" fill="#fafafa"/>
      <path id="Path_1603" data-name="Path 1603" d="M399.8,326.74H386.21l2.161,13.252h0a2.419,2.419,0,0,0,1.308,1.643,7.257,7.257,0,0,0,6.573,0,2.48,2.48,0,0,0,1.324-1.643h0Z" transform="translate(-109.532 -151.809)" fill="#fafafa"/>
      <path id="Path_1604" data-name="Path 1604" d="M388.184,325.076c-2.663,1.521-2.663,4.032,0,5.569a10.65,10.65,0,0,0,9.646,0c2.663-1.522,2.663-4.032,0-5.569a10.651,10.651,0,0,0-9.646,0Z" transform="translate(-109.544 -153.279)" fill="#fafafa"/>
      <path id="Path_1605" data-name="Path 1605" d="M354.367,300.32H340.78l2.176,13.252h0a2.465,2.465,0,0,0,1.324,1.628,7.257,7.257,0,0,0,6.573,0,2.389,2.389,0,0,0,1.308-1.628h0Z" transform="translate(-133.222 -165.586)" fill="#fafafa"/>
      <path id="Path_1606" data-name="Path 1606" d="M342.764,298.646c-2.663,1.521-2.663,4.032,0,5.584a10.65,10.65,0,0,0,9.646,0c2.663-1.522,2.663-4.032,0-5.584a10.65,10.65,0,0,0-9.646,0Z" transform="translate(-133.229 -167.061)" fill="#fafafa"/>
      <path id="Path_1607" data-name="Path 1607" d="M505.452,317.1v63.278a14.606,14.606,0,0,1-6.588,11.411l-5.371,3.043H493.4a14.788,14.788,0,0,1-8.231,1.415l-163.4,90.557a14.713,14.713,0,0,1-6.512,10.954h0L309.9,500.8a2.631,2.631,0,0,1-.5.259,2.3,2.3,0,0,1-.274.137h-.076a15.017,15.017,0,0,1-10.224.472,9.284,9.284,0,0,1-1.141-.426l-.183-.076c-.274-.122-.532-.259-.776-.4l-85.765-49.311a14.591,14.591,0,0,1-6.588-11.411V333.946a14.636,14.636,0,0,1,6.588-11.411l189.011-109.2a14.56,14.56,0,0,1,13.176,0l5.371,3.043a17.512,17.512,0,0,1,7.607,11.35l5.173,38.843L498.879,305.6A14.606,14.606,0,0,1,505.452,317.1Z" transform="translate(-204.355 -211.764)" fill="#37474f"/>
      <path id="Path_1608" data-name="Path 1608" d="M418.495,216.413l-5.355-3.043a14.561,14.561,0,0,0-13.176,0L210.937,322.52c-.4.228-.806.517-.685.426a15.078,15.078,0,0,0-5.842,9.874c.487-3.362,3.225-4.564,6.512-2.693l5.371,3.043a14.561,14.561,0,0,0,13.176,0l189.026-109.21C422.131,221.921,422.131,218.513,418.495,216.413Z" transform="translate(-204.334 -211.749)" fill="#455a64"/>
      <path id="Path_1609" data-name="Path 1609" d="M434.033,298.3V361.58a14.606,14.606,0,0,1-6.588,11.411l-5.371,3.043h-.091a14.044,14.044,0,0,1-7.714,1.521,12.918,12.918,0,0,1-5.371-1.521L347.918,340.9a14.606,14.606,0,0,1-6.588-11.411V266.138a14.576,14.576,0,0,1,6.588-11.411l11.943-6.907,67.583,39.025A14.607,14.607,0,0,1,434.033,298.3Z" transform="translate(-132.936 -192.963)" fill="#263238"/>
      <path id="Path_1610" data-name="Path 1610" d="M358.534,247.82l-11.944,6.907c-3.621,2.084-3.621,5.508,0,7.607l60.98,35.207a14.591,14.591,0,0,1,6.588,11.411v63.293c0,4.184,2.967,5.888,6.588,3.8l5.371-3.043a14.636,14.636,0,0,0,6.588-11.411V298.3a14.637,14.637,0,0,0-6.588-11.411Z" transform="translate(-131.608 -192.963)" fill="#455a64"/>
      <path id="Path_1611" data-name="Path 1611" d="M390.727,293.893v63.293c0,4.184,2.967,5.888,6.588,3.8l5.371-3.043a14.637,14.637,0,0,0,6.588-11.411V283.242a13.557,13.557,0,0,0-1.917-6.542L388.81,287.35a13.435,13.435,0,0,1,1.917,6.542Z" transform="translate(-108.177 -177.903)" fill="#37474f"/>
      <path id="Path_1612" data-name="Path 1612" d="M467.749,351.106a15.946,15.946,0,0,1-2.4,3.621,29.014,29.014,0,0,1-6.192,4.336L313.32,443.322a7.288,7.288,0,0,1-6.588,0L285.31,430.953l-42.859-24.739a12.369,12.369,0,0,1,0-21.879l24.343-14.043,18.547-10.65,102.881-59.535a14.636,14.636,0,0,1,13.176,0l60.98,35.222a14.134,14.134,0,0,1,6.588,10.939,11.655,11.655,0,0,1-1.217,4.838Z" transform="translate(-187.937 -166.514)" fill="#263238"/>
      <path id="Path_1613" data-name="Path 1613" d="M287.912,414.646l152.344-88.032c1.811-1.05,3.286-.2,3.286,1.9v6.664a7.3,7.3,0,0,1-3.286,5.706L287.9,428.917c-1.811,1.05-3.286.2-3.286-1.9v-6.664a7.273,7.273,0,0,1,3.3-5.706Z" transform="translate(-162.513 -152.109)" fill="#37474f"/>
      <path id="Path_1614" data-name="Path 1614" d="M388.219,278.668,242.448,362.9a14.575,14.575,0,0,0-6.588,11.411v13.328a14.575,14.575,0,0,0,6.588,11.411l61,35.207a14.56,14.56,0,0,0,13.176,0l145.756-84.258a14.59,14.59,0,0,0,6.588-11.411V325.24a14.576,14.576,0,0,0-6.588-11.411l-60.98-35.207a14.561,14.561,0,0,0-13.176.045Z" transform="translate(-187.934 -177.71)" fill="#37474f"/>
      <path id="Path_1615" data-name="Path 1615" d="M310.031,377.7v28.558a13.433,13.433,0,0,1-6.588-1.521l-61-35.207a14.575,14.575,0,0,1-6.588-11.411V344.765a14.743,14.743,0,0,1,5.918-10.985c-2.952,2.115-2.723,5.219.669,7.181l61,35.207A13.481,13.481,0,0,0,310.031,377.7Z" transform="translate(-187.934 -148.138)" fill="#263238"/>
      <path id="Path_1616" data-name="Path 1616" d="M315.3,405.7l145.756-84.228c3.636-2.1,3.636-5.508,0-7.607l-60.98-35.207a14.56,14.56,0,0,0-13.176,0L241.125,362.888c-3.636,2.1-3.636,5.508,0,7.607l61,35.207a14.56,14.56,0,0,0,13.176,0Z" transform="translate(-186.611 -177.703)" fill="#455a64"/>
      <g id="freepik--Character--inject-304" transform="translate(110.778 22.273)">
        <path id="Path_1617" data-name="Path 1617" d="M343.329,305.894l-50.543,1.385-.563-54.925a25.256,25.256,0,0,1,24.572-25.941h0a25.271,25.271,0,0,1,25.956,24.572Z" transform="translate(-269.325 -226.404)" fill="#263238"/>
        <path id="Path_1618" data-name="Path 1618" d="M316.59,261.818c3.591-.411,8.733-2.8,14.028,7.075s15.5,31.038,15.5,31.038L356.27,288.4l7.79,6.3s-11.685,17.725-15.047,21.072c-2.662,2.647-5.827,3.043-9.281-1.4-4.062-5.158-16.873-25.971-16.873-25.971Z" transform="translate(-256.614 -208.222)" fill="#ffa8a7"/>
        <path id="Path_1619" data-name="Path 1619" d="M378.492,286.063a1.324,1.324,0,0,0-1.019-2.145,1.293,1.293,0,0,0-.943.411q0-.205,0-.411a3.986,3.986,0,0,0-4-3.986,3.9,3.9,0,0,0-1.963.517,1.747,1.747,0,0,0-2.5-2.191,4.156,4.156,0,0,0,0-.624,4.564,4.564,0,0,0-8.535-2.069,1.521,1.521,0,0,0-2.906,0,3.545,3.545,0,0,0-6.557,1.871,3.043,3.043,0,0,0,0,.533,1.308,1.308,0,0,0-2.145,1.019h0a3.043,3.043,0,0,0-1.521-.426,3.165,3.165,0,0,0-3.119,2.723,2.021,2.021,0,0,0-.685-.122,1.947,1.947,0,0,0-1.963,1.963,2.189,2.189,0,0,0,.122.7,4.564,4.564,0,0,0,1.7,8.87l16.508,11.122,17.664-11.381a3.439,3.439,0,0,0,1.811-6.36Zm-2.313-.487Z" transform="translate(-245.608 -201.978)" fill="#f5f5f5"/>
        <path id="Path_1620" data-name="Path 1620" d="M354.7,290.954l-.578,34.339,3.606-2.069,1.172-34.7Z" transform="translate(-237.044 -194.012)" fill="#fafafa"/>
        <path id="Path_1621" data-name="Path 1621" d="M357.662,289.349l-1.172,34.7,3.575-2.069,1.811-35.055Z" transform="translate(-235.808 -194.841)" fill="#ba68c8"/>
        <path id="Path_1622" data-name="Path 1622" d="M352.876,291.885a2.236,2.236,0,0,1-1.126.274v34a2.4,2.4,0,0,0,1.126-.259l2.48-1.445.578-34.339Z" transform="translate(-238.28 -193.178)" fill="#ba68c8"/>
        <path id="Path_1623" data-name="Path 1623" d="M361.18,321.6l2.419-1.4a2.769,2.769,0,0,0,1.232-1.932l3.043-34.552-4.23,2.45Z" transform="translate(-233.362 -196.515)" fill="#ba68c8"/>
        <path id="Path_1624" data-name="Path 1624" d="M360.651,287.764l-1.811,35.054,3.56-2.054,2.465-35.435Z" transform="translate(-234.582 -195.676)" fill="#fafafa"/>
        <path id="Path_1625" data-name="Path 1625" d="M350.434,290.954l.578,34.339-3.591-2.069-1.172-34.7Z" transform="translate(-241.148 -194.012)" fill="#ba68c8"/>
        <path id="Path_1626" data-name="Path 1626" d="M347.694,289.349l1.172,34.7-3.575-2.069L343.48,286.93Z" transform="translate(-242.592 -194.841)" fill="#e0e0e0"/>
        <path id="Path_1627" data-name="Path 1627" d="M352.043,291.885a2.221,2.221,0,0,0,1.111.274v34a2.39,2.39,0,0,1-1.111-.259l-2.5-1.445L349,290.12Z" transform="translate(-239.714 -193.178)" fill="#e0e0e0"/>
        <path id="Path_1628" data-name="Path 1628" d="M344.63,321.6l-2.419-1.4a2.784,2.784,0,0,1-1.248-1.932L337.92,283.72l4.245,2.45Z" transform="translate(-245.491 -196.515)" fill="#e0e0e0"/>
        <path id="Path_1629" data-name="Path 1629" d="M344.925,287.764l1.811,35.054-3.56-2.054L340.71,285.33Z" transform="translate(-244.036 -195.676)" fill="#ba68c8"/>
        <path id="Path_1630" data-name="Path 1630" d="M350.434,290.954l.578,34.339-3.591-2.069-1.172-34.7Z" transform="translate(-241.148 -194.012)" opacity="0.1"/>
        <path id="Path_1631" data-name="Path 1631" d="M344.925,287.764l1.811,35.054-3.56-2.054L340.71,285.33Z" transform="translate(-244.036 -195.676)" opacity="0.1"/>
        <path id="Path_1632" data-name="Path 1632" d="M352.545,287.418a2.221,2.221,0,0,1-1.78.913,2.176,2.176,0,0,1-.563-4.291,2.084,2.084,0,0,0-.426,1.278,2.191,2.191,0,0,0,2.191,2.176A1.826,1.826,0,0,0,352.545,287.418Z" transform="translate(-239.957 -196.349)" fill="#e0e0e0"/>
        <path id="Path_1633" data-name="Path 1633" d="M353.817,286.569a1.415,1.415,0,1,1-2.6-.609,1.384,1.384,0,0,0,.35.791,1.43,1.43,0,0,0,2.008.107A1.064,1.064,0,0,0,353.817,286.569Z" transform="translate(-238.673 -195.347)" fill="#e0e0e0"/>
        <path id="Path_1634" data-name="Path 1634" d="M348.505,279.56a2.185,2.185,0,1,1-4,.989,2.144,2.144,0,0,0,1.05.837,2.176,2.176,0,0,0,2.815-1.263A2.531,2.531,0,0,0,348.505,279.56Z" transform="translate(-242.064 -198.685)" fill="#e0e0e0"/>
        <path id="Path_1635" data-name="Path 1635" d="M345.821,280.92a1.385,1.385,0,0,1,0,1.293,1.415,1.415,0,0,1-1.9.639,1.4,1.4,0,0,1-.761-1.521,1.415,1.415,0,0,0,2.526,0,1.141,1.141,0,0,0,.137-.411Z" transform="translate(-242.773 -197.975)" fill="#e0e0e0"/>
        <path id="Path_1636" data-name="Path 1636" d="M361.27,283.391a2.191,2.191,0,1,1-3.971-1.141,2.267,2.267,0,0,0,.5,1.263,2.176,2.176,0,0,0,3.043.289,2.024,2.024,0,0,0,.426-.411Z" transform="translate(-235.598 -197.282)" fill="#e0e0e0"/>
        <path id="Path_1637" data-name="Path 1637" d="M362.287,282.549a1.415,1.415,0,1,1-2.6-.608,1.415,1.415,0,0,0,2.358.9A1.067,1.067,0,0,0,362.287,282.549Z" transform="translate(-234.256 -197.444)" fill="#e0e0e0"/>
        <path id="Path_1638" data-name="Path 1638" d="M357.927,280.76a1.421,1.421,0,1,1-1.917,1.871,1.385,1.385,0,0,0,.867.122,1.4,1.4,0,0,0,1.156-1.628A.927.927,0,0,0,357.927,280.76Z" transform="translate(-236.058 -198.059)" fill="#e0e0e0"/>
        <path id="Path_1639" data-name="Path 1639" d="M343.175,279.515c0,1.08,1.415,2.571,2.237,3.393s3.408,2.16,4.108,3.119,1.7.9,1.993-.654-2.313-4.291-2.374-5.112,3.347-.745,5.508.076,4.473,4.686,5.31,6.588,6.086,1.75,5.934-3.712-2.86-8.049-5.858-9.448a17.512,17.512,0,0,0-10.513-.989c-3.362.761-7.044,3.5-8.809,8.855a1.9,1.9,0,0,1,1.05.091,3.119,3.119,0,0,1,1.415-2.206Z" transform="translate(-244.036 -202.428)" fill="#ffa8a7"/>
        <path id="Path_1640" data-name="Path 1640" d="M277.17,276.449c4.671-1.7,30.551-12.8,39.315-12.628l.943,21.529-27.843,12.643Z" transform="translate(-277.17 -206.893)" fill="#e0e0e0"/>
        <path id="Path_1641" data-name="Path 1641" d="M348.493,352.84c-.882.928-1.887,1.993-1.78,3.165a11.928,11.928,0,0,0,3.149,6.6c2.434,2.632,4.047,7.607,4.564,11.092s.761,12.172,5.1,15.549,14.849,5.143,14.849-1.2-12.552-30.794-12.552-30.794Z" transform="translate(-240.91 -160.472)" fill="#263238"/>
        <path id="Path_1642" data-name="Path 1642" d="M351.71,355.52a96.074,96.074,0,0,1,4.245,13.693c1.065,5.1,2.571,8.688,5.173,10.057s6.481,1.126,5.021-2.343-7.014-21.042-7.014-21.042Z" transform="translate(-238.3 -159.074)" fill="#f28f8f"/>
        <path id="Path_1643" data-name="Path 1643" d="M332.926,298.47s20.661,9.448,30.7,14.849,19.612,10.65,21.6,15.017c2.115,4.564,1.522,15.549.472,26.078s-3.408,29.44-3.408,29.44l-29.425-44.122L323.31,320.2Z" transform="translate(-253.11 -188.824)" fill="#370c50"/>
        <path id="Path_1644" data-name="Path 1644" d="M368.142,340.858c-2.906-6.755-9.235-11.244-15.215-14.91-4.717-2.921-16.477-9.768-21.088-12.446a21.5,21.5,0,0,0,1.522-7.242s-1.445,3.317-3.15,6.314h0L328.98,314.6l30.277,22.594,20.8,37.139S371.048,347.537,368.142,340.858Z" transform="translate(-250.153 -184.762)" opacity="0.1"/>
        <path id="Path_1645" data-name="Path 1645" d="M364.024,376.29c-.852.563-.73,2.663-.654,4.214s-1.019,3.56,1.217,5.934,6.01,2.586,9.129,5.842,7.744,9.235,16.143,9.676,14.165-3.241,15.291-5.9-.578-4.732-6.253-6.877c-6.086-2.282-7.729-2.952-7.729-2.952Z" transform="translate(-232.326 -148.244)" fill="#263238"/>
        <path id="Path_1646" data-name="Path 1646" d="M371.6,364.4s5.66,10.224,8.84,14.834a57.953,57.953,0,0,0,12.583,12.476c1.065.806,3.393,2.252,4.26,2.906a1.521,1.521,0,0,1,.335,2.419c-1.4,2.039-8.748,3.971-13.556,1.719s-10.133-7.349-13.13-9.357c-1.521-.989-2.921-1.947-3.971-2.663a3.423,3.423,0,0,1-1.521-3.043c0-.35,0-.746,0-1.217,0-2.51-5.127-11.715-5.127-11.715Z" transform="translate(-233.816 -154.444)" fill="#ffa8a7"/>
        <path id="Path_1647" data-name="Path 1647" d="M299.58,310.14c.091,8.4.5,13.085,4.914,20.753s15.215,12.506,27.828,16.736c10.5,3.53,25.865,8.566,29,9.22s3.7,2.3,4.412,7.729,4.351,13.784,12.552,23.507a258.332,258.332,0,0,1,16.66,22.563s8.566,0,11.837-5.706c0,0-23.841-56.294-27.66-62.745s-34.781-23.613-34.781-23.613.517-11.639.928-20.114Z" transform="translate(-265.484 -188.824)" fill="#370c50"/>
        <path id="Path_1648" data-name="Path 1648" d="M306.885,264.962,299.43,268.7s5.143,5.158,3.728,17.832c-.989,8.977-3.043,9.753-7.607,12.278,6.086,13.784,6.086,34.081,6.086,34.081s10.726,5.751,30.216.213c17.132-4.853,15.428-15.428,15.428-15.428l-7.364-5.675-1.658-13.419s5.8-5.827,3.286-16.2-14.1-20.753-14.1-20.753h-4.564Z" transform="translate(-267.586 -208.034)" fill="#fafafa"/>
        <path id="Path_1649" data-name="Path 1649" d="M344.642,319.7c-8.718,3.256-21.3,2.739-27.234,0-8.338-3.849-11.822-14.423-11.137-21.164,1.126-11,.2-18.44-2.434-25.256h-.578a34.549,34.549,0,0,1-.091,7.166c-.989,8.977-3.043,9.753-7.607,12.278,5.705,13.45,6.086,34.081,6.086,34.081s10.726,5.751,30.216.213c5.538-1.522,10-4,12.674-7.333Z" transform="translate(-267.58 -201.959)" fill="#f0f0f0"/>
        <path id="Path_1650" data-name="Path 1650" d="M330.377,233.57c2.708,1.522,6.192,8.125,6.238,22.2,0,11.943-3.728,14.986-5.645,15.884s-5.675.487-9.342,0l.076,4.945s6.558,7.181,6.329,10.468-8.4,4.975-13.191,1.932a38.3,38.3,0,0,1-8.931-9.129l-.365-16.538s-2.084,2.145-5.8-.928c-3.043-2.541-4.2-6.938-1.932-9.372a5.219,5.219,0,0,1,8.353,1.43,28.741,28.741,0,0,0,13.435-4.4,21.787,21.787,0,0,0,10.772-16.493Z" transform="translate(-267.023 -222.667)" fill="#ffa8a7"/>
        <path id="Path_1651" data-name="Path 1651" d="M315.139,246.914a1.628,1.628,0,1,1,.046,0Z" transform="translate(-258.936 -216.444)" fill="#263238"/>
        <path id="Path_1652" data-name="Path 1652" d="M314.571,253.07l3.515,1.019a1.8,1.8,0,0,1-2.221,1.308,1.932,1.932,0,0,1-1.293-2.328Z" transform="translate(-257.699 -212.498)" fill="#f28f8f"/>
        <path id="Path_1653" data-name="Path 1653" d="M323.153,244.173l-3.043-2.008a1.75,1.75,0,0,1,2.5-.593A1.947,1.947,0,0,1,323.153,244.173Z" transform="translate(-254.779 -218.648)" fill="#263238"/>
        <path id="Path_1654" data-name="Path 1654" d="M322.752,246.006a1.521,1.521,0,1,1-.5-1.06A1.521,1.521,0,0,1,322.752,246.006Z" transform="translate(-254.986 -216.937)" fill="#263238"/>
        <path id="Path_1655" data-name="Path 1655" d="M317.25,244.58l.183,9.768,4.7-1.6Z" transform="translate(-256.27 -216.925)" fill="#f28f8f"/>
        <path id="Path_1656" data-name="Path 1656" d="M317.555,260.488c-3.834-.4-11.791-2.449-13.115-5.538a8.186,8.186,0,0,0,2.876,3.91c2.419,1.948,10.315,4.017,10.315,4.017Z" transform="translate(-262.95 -211.518)" fill="#f28f8f"/>
        <path id="Path_1657" data-name="Path 1657" d="M313.11,262.885v-2.556s6.208-1.111,9.479,0a26.488,26.488,0,0,1,8.185,4.732,13.054,13.054,0,0,1,2.952,7.744c-.076,3.469-3.408,4.671-7.9,1.856-2.419-1.522-3.347-4.443-4.945-5.949A22.442,22.442,0,0,1,313.11,262.885Z" transform="translate(-258.429 -208.97)" fill="#b16668"/>
        <path id="Path_1658" data-name="Path 1658" d="M306.391,266.28c-6.77,3.119-10.863,5.112-13.069,15.215s-11.091,58.348-11.091,58.348l10.529,3.362s7.744-23.933,9.935-31.951,6.481-20.053,7.425-27.158S311.822,272.092,306.391,266.28Z" transform="translate(-274.532 -205.61)" fill="#ffa8a7"/>
      </g>
      <rect id="Rectangle_193" data-name="Rectangle 193" width="11.472" height="19.627" transform="translate(151.614 286.971) rotate(180)" fill="#b16668"/>
      <path id="Path_1659" data-name="Path 1659" d="M316.81,396.938l11.457.4.578-20.768-11.457-.4Z" transform="translate(-145.722 -126.033)" fill="#b16668"/>
      <path id="Path_1660" data-name="Path 1660" d="M308.832,397.74V395.7c1.2.533,6.618,11.989,11.563,16.508,3.925,3.576,10.848,8.49,10.65,11.883-.228,4.4-6.481,6.344-11.883,5.066-4.214-.989-10.239-3.545-13.13-6.664s-3.819-7.212-5.34-9.25-4.975-4.321-5.8-6.694c-.441-1.293.091-4.138.715-6.527s1.2-4.64,1.963-4.427v1.354a9.813,9.813,0,0,0,6.223,2.115C305.668,399.109,308.832,399.125,308.832,397.74Z" transform="translate(-157.234 -115.911)" fill="#263238"/>
      <path id="Path_1661" data-name="Path 1661" d="M329.554,387.987c.593,0,1.08.852,2.389,2.282a32.131,32.131,0,0,0,7.7,4.793c4.29,2.145,15.534,5.036,19.307,6.725,2.358,1.065,1.765,4.732-1.521,6.786-2.5,1.521-10.437,3.043-17.5,1.445-3.865-.867-9.722-3.53-12.583-3.986-3.149-.487-8.931-1.1-11.274-2.708s-1.4-5.066-.745-8.033c.73-3.225,1.765-8.185,2.83-7.957v1.019c1.385,2.084,8.4,2.936,11.426,1.4Z" transform="translate(-146.887 -120.216)" fill="#263238"/>
      <path id="Path_1662" data-name="Path 1662" d="M258.49,334.631c3.134,14.423,12.9,22.822,30.536,29.851,14.013,5.538,27.265,10.239,27.265,10.239a101.239,101.239,0,0,0-2.617,22.244c-.107,11.183,2.024,35.952,2.024,35.952s7.607,3.21,12.841-.122c0,0,2.83-19.2,4.99-33.2,3.362-21.833,5.736-32.833,4.747-36.941-.609-2.571-9.707-8.977-17.71-14.454l23.811,10.924a128.758,128.758,0,0,0-.609,14.454c.4,15.215,3.454,45.081,3.454,45.081s8.338,3.728,12.476.5c0,0,9.631-71.128,7.912-76.286-2.008-6.086-8.536-8.414-40.593-22.061-7.394-3.165-18.455-6.816-18.455-6.816Z" transform="translate(-176.133 -158.453)" fill="#370c50"/>
      <path id="Path_1664" data-name="Path 1664" d="M261.72,277.258a36.27,36.27,0,0,0-5.356,18.486l-2.115,22.4c1.019,18.151,1.978,25.5,5.127,38.493,8.14,8.855,42.357-1.4,51.395-20.722,0,0-4.351-25.317-5.188-42.6-.593-12.263-4.717-20.951-16.462-21.209l-15.062,2.069Z" transform="translate(-178.344 -180.302)" fill="#f5f5f5"/>
      <circle id="Ellipse_130" data-name="Ellipse 130" cx="16.493" cy="16.493" r="16.493" transform="translate(92.505 58.259) rotate(-45)" fill="#263238"/>
      <path id="Path_1665" data-name="Path 1665" d="M262.76,256.53s2.526,11.867,3.545,13.83a5.37,5.37,0,0,0,3.043,2.5l-.167-8.353Z" transform="translate(-173.907 -188.421)" fill="#263238"/>
      <path id="Path_1666" data-name="Path 1666" d="M266.881,245.354a5.858,5.858,0,0,0-4.853,1.7c-2.084,2.13-.913,8.794,1.674,15.321l4.762.533Z" transform="translate(-174.847 -194.27)" fill="#263238"/>
      <path id="Path_1667" data-name="Path 1667" d="M270.591,265.425c-.959.563-2.313-1.263-3.5-2.5s-5.021-2.921-6.938,1.126,1.689,9.555,4.717,10.5c5.219,1.643,6.01-1.7,6.01-1.7l.4,18.82c4.564,5.021,19.87,3.819,16.98-.5v-5.721a33.186,33.186,0,0,0,7.029.365c3.834-.593,6.253-3.621,7.409-7.775,1.871-6.679,2.587-12.065,1-25.18-1.75-14.378-18.471-14.53-27.508-8.84S270.591,265.425,270.591,265.425Z" transform="translate(-175.546 -196.768)" fill="#b16668"/>
      <path id="Path_1668" data-name="Path 1668" d="M268.243,269.132c-.472,0-2.3-3.043-3.5-4.093-1.643-1.521.487-15.078.487-15.078a6.436,6.436,0,0,1,1.521-6.862c2.267-2.5,6.086-2.769,12.476-3.773,3.378-.532,8.5-1.521,11.867-2.115,4.032-.746,7.364-1.521,10.209.928a7.166,7.166,0,0,1,1.978,8.018,7.394,7.394,0,0,1-4.047,3.7s-1.75,1.521-7.866,2.3a89.856,89.856,0,0,1-16.934-.32c-1.765-.243-2.145,1.521-3.043,6.177C270.555,262.118,269.855,269.1,268.243,269.132Z" transform="translate(-173.197 -198.878)" fill="#263238"/>
      <path id="Path_1669" data-name="Path 1669" d="M266.826,247.685l-5.766-3.043a3.2,3.2,0,0,1,4.367-1.521,3.438,3.438,0,0,1,1.4,4.564Z" transform="translate(-174.793 -195.597)" fill="#263238"/>
      <path id="Path_1670" data-name="Path 1670" d="M283.811,272.589s-8.566-1.734-11.563-3.317a9.919,9.919,0,0,1-4.138-4.093A13.541,13.541,0,0,0,270.453,270c2.191,2.8,13.358,4.869,13.358,4.869Z" transform="translate(-171.117 -183.91)" fill="#9a4a4d"/>
      <path id="Path_1671" data-name="Path 1671" d="M278.248,256.1a1.719,1.719,0,1,1-1.628-1.8,1.765,1.765,0,0,1,1.628,1.8Z" transform="translate(-167.622 -189.585)" fill="#263238"/>
      <path id="Path_1672" data-name="Path 1672" d="M276.6,251.2l-3.667,2.024a2.206,2.206,0,0,1,.852-2.921,2.039,2.039,0,0,1,2.815.9Z" transform="translate(-168.73 -191.797)" fill="#263238"/>
      <path id="Path_1673" data-name="Path 1673" d="M277.97,263.27l3.91,1.521a2.054,2.054,0,0,1-2.663,1.293,2.176,2.176,0,0,1-1.247-2.815Z" transform="translate(-166.051 -184.906)" fill="#9a4a4d"/>
      <path id="Path_1674" data-name="Path 1674" d="M288.567,252.98l-3.347-2.571a2.039,2.039,0,0,1,2.906-.456,2.221,2.221,0,0,1,.441,3.028Z" transform="translate(-162.195 -192.068)" fill="#263238"/>
      <path id="Path_1675" data-name="Path 1675" d="M287.638,255.775a1.719,1.719,0,1,1-1.719-1.8A1.78,1.78,0,0,1,287.638,255.775Z" transform="translate(-162.726 -189.751)" fill="#263238"/>
      <path id="Path_1676" data-name="Path 1676" d="M280.88,254.25l.2,10.407,6.162-1.354Z" transform="translate(-164.458 -189.61)" fill="#9a4a4d"/>
      <path id="Path_1677" data-name="Path 1677" d="M304.009,342.2l-13.769-7.379s5.614-4.047,6.36-9.311c0,0,.335,6.466-2.1,9.311l29.866,16.736Z" transform="translate(-159.577 -152.451)" opacity="0.15"/>
      <path id="Path_1678" data-name="Path 1678" d="M303.255,456.85V393.572a14.606,14.606,0,0,0-6.588-11.411l-67.583-39.01-5.173-38.858a17.482,17.482,0,0,0-7.607-11.335l-5.356-3.043c-3.636-2.084-6.588-.38-6.588,3.8V399.825a14.576,14.576,0,0,0,6.588,11.411l85.673,49.417C300.288,462.753,303.255,461.034,303.255,456.85Z" transform="translate(-204.36 -171.476)" fill="#263238"/>
      <path id="Path_1679" data-name="Path 1679" d="M313.287,367.213v63.293a4,4,0,0,1,0,.426,14.713,14.713,0,0,1-6.512,10.954h0l-5.355,3.043a2.633,2.633,0,0,1-.5.259,2.306,2.306,0,0,1-.274.137h-.076a4.556,4.556,0,0,1-.532.2,15.291,15.291,0,0,1-9.692.274,9.265,9.265,0,0,1-1.141-.426c3.165,1.308,5.614-.472,5.629-4.26h0V377.924a14.606,14.606,0,0,0-6.588-11.411l-11.959-6.907L220.66,327.5l11.959-6.907a14.667,14.667,0,0,1,13.176,0l49.037,28.314,11.944,6.892A14.591,14.591,0,0,1,313.287,367.213Z" transform="translate(-195.86 -155.828)" fill="#455a64"/>
      <path id="Path_1680" data-name="Path 1680" d="M271.289,363.633V426.91h0c0,3.788-2.465,5.568-5.629,4.26a9.264,9.264,0,0,0,1.141.426,15.29,15.29,0,0,0,9.692-.274,4.516,4.516,0,0,0,.533-.2h.076a2.294,2.294,0,0,0,.274-.137,2.632,2.632,0,0,0,.5-.259l5.355-3.043h0a14.713,14.713,0,0,0,6.512-10.955,3.968,3.968,0,0,0,0-.426V352.922a13.389,13.389,0,0,0-1.932-6.482l-18.531,10.65A13.6,13.6,0,0,1,271.289,363.633Z" transform="translate(-172.395 -141.536)" fill="#37474f"/>
      <path id="Path_1681" data-name="Path 1681" d="M266.558,279.1c-4.793,1.7-18.592,30.962-21.574,36.682s-10.863,23.385-9.327,30.505,31.829,22.152,34.841,25.15c3.606,3.621,4.564,5.371,9.966,5.934,4.412.472,5.69,3.925,9.92,5.751s11.594-1.354,8.322-7.379c-3.849-7.12-7.014-8.687-10.529-10.133-4.884-2.008-7.836-2.176-11.183-4.245s-22.928-20.646-22.928-20.646l9.981-19.46s6.086-14.484,6.588-25.576S266.558,279.1,266.558,279.1Z" transform="translate(-188.142 -176.652)" fill="#b16668"/>
      <path id="Path_1682" data-name="Path 1682" d="M269.057,275.49c-9.129,3.332-13.845,12.491-19.018,22.822s-9.859,21.468-9.859,21.468a37.292,37.292,0,0,0,18.805,10.452l9.829-18.684S279.3,291.085,269.057,275.49Z" transform="translate(-185.681 -178.534)" fill="#e0e0e0"/>
    </g>
  </g>
</svg>
