<svg xmlns="http://www.w3.org/2000/svg" width="64.599" height="64.599" viewBox="0 0 64.599 64.599">
  <g id="Group_93" data-name="Group 93" transform="translate(-335.701 -653.701)">
    <path id="Path_2458" data-name="Path 2458" d="M6.251,0a171.631,171.631,0,0,0,25.89,2.254A178.6,178.6,0,0,0,58.347,0,6.251,6.251,0,0,1,64.6,6.251v52.1A6.251,6.251,0,0,1,58.347,64.6a238.676,238.676,0,0,0-26.205-1.675A229.313,229.313,0,0,0,6.251,64.6,6.251,6.251,0,0,1,0,58.347V6.251A6.251,6.251,0,0,1,6.251,0Z" transform="translate(335.701 653.701)" fill="#370c50"/>
    <g id="Layer_2" data-name="Layer 2" transform="translate(351 669)">
      <g id="invisible_box" data-name="invisible box">
        <rect id="Rectangle_218" data-name="Rectangle 218" width="35" height="35" fill="none"/>
      </g>
      <g id="Q3_icons" data-name="Q3 icons" transform="translate(1.525 1.452)">
        <path id="Path_2444" data-name="Path 2444" d="M32.673,5.719v5.035a1.459,1.459,0,0,1-1.459,1.459H26.105a1.459,1.459,0,0,1-1.459-1.678,1.532,1.532,0,0,1,1.532-1.241h1.678A13.135,13.135,0,0,0,5.016,16.738a1.459,1.459,0,0,1-1.459,1.314h0A1.459,1.459,0,0,1,2.1,16.446,16.054,16.054,0,0,1,29.754,7.032V5.646a1.459,1.459,0,0,1,1.678-1.459,1.532,1.532,0,0,1,1.241,1.532Z" transform="translate(-2.09 -1.989)" fill="#fff"/>
        <path id="Path_2445" data-name="Path 2445" d="M4,36.332V31.3a1.459,1.459,0,0,1,1.459-1.459h5.108a1.459,1.459,0,0,1,1.459,1.678,1.532,1.532,0,0,1-1.532,1.241H8.816a13.135,13.135,0,0,0,22.841-7.443A1.459,1.459,0,0,1,33.116,24h0a1.459,1.459,0,0,1,1.459,1.605A16.054,16.054,0,0,1,6.919,35.019v1.386A1.459,1.459,0,0,1,5.24,37.865,1.532,1.532,0,0,1,4,36.332Z" transform="translate(-2.606 -7.938)" fill="#fff"/>
        <path id="Path_2446" data-name="Path 2446" d="M22.613,19.027c-2.554-.511-2.554-.949-2.554-1.314s.146-.438.365-.657a2.481,2.481,0,0,1,1.314-.292,4.6,4.6,0,0,1,2.408.657,1.314,1.314,0,0,0,1.97-.365,1.386,1.386,0,0,0-.292-2.043,6.641,6.641,0,0,0-2.262-.876V12.459a1.459,1.459,0,0,0-2.919,0v1.605c-2.189.365-3.649,1.824-3.649,3.795s2.408,3.576,4.743,4.014,2.408.949,2.408,1.314-.8,1.022-1.824,1.022h0a4.889,4.889,0,0,1-2.992-.949,1.459,1.459,0,0,0-2.043.438,1.314,1.314,0,0,0,.219,1.9,7.954,7.954,0,0,0,3.138,1.314v1.605a1.459,1.459,0,0,0,2.919,0V26.908a4.6,4.6,0,0,0,2.189-.949,3.576,3.576,0,0,0,1.459-2.919h0C27.21,20.341,24.729,19.465,22.613,19.027Z" transform="translate(-6.114 -4.424)" fill="#fff"/>
      </g>
    </g>
  </g>
</svg>
