<svg xmlns="http://www.w3.org/2000/svg" width="757.5" height="564.428" viewBox="0 0 757.5 564.428">
  <g id="Mobile_payments-rafiki" data-name="Mobile payments-rafiki" transform="translate(0 -55)">
    <g id="freepik--background-complete--inject-152" transform="translate(0 55)">
      <rect id="Rectangle_81" data-name="Rectangle 81" width="757.5" height="0.379" transform="translate(0 496.011)" fill="#ebebeb"/>
      <rect id="Rectangle_82" data-name="Rectangle 82" width="22.573" height="0.379" transform="translate(659.025 520.387)" fill="#ebebeb"/>
      <rect id="Rectangle_83" data-name="Rectangle 83" width="13.165" height="0.379" transform="translate(488.633 524.508)" fill="#ebebeb"/>
      <rect id="Rectangle_84" data-name="Rectangle 84" width="51.798" height="0.379" transform="translate(600.834 506.328)" fill="#ebebeb"/>
      <rect id="Rectangle_85" data-name="Rectangle 85" width="65.433" height="0.379" transform="translate(100.657 514.146)" fill="#ebebeb"/>
      <rect id="Rectangle_86" data-name="Rectangle 86" width="23.604" height="0.379" transform="translate(179.573 514.146)" fill="#ebebeb"/>
      <rect id="Rectangle_87" data-name="Rectangle 87" width="141.925" height="0.379" transform="translate(244.036 509.055)" fill="#ebebeb"/>
      <path id="Path_168" data-name="Path 168" d="M339.377,483.442H46.845a8.651,8.651,0,0,1-8.635-8.651V63.575A8.651,8.651,0,0,1,46.846,55H339.377a8.651,8.651,0,0,1,8.651,8.651V474.791A8.651,8.651,0,0,1,339.377,483.442ZM46.845,55.3a8.272,8.272,0,0,0-8.257,8.272V474.791a8.272,8.272,0,0,0,8.257,8.272H339.377a8.287,8.287,0,0,0,8.272-8.272V63.575a8.287,8.287,0,0,0-8.272-8.272Z" transform="translate(19.678 -55)" fill="#ebebeb"/>
      <path id="Path_169" data-name="Path 169" d="M555.7,483.442H263.151a8.666,8.666,0,0,1-8.651-8.651V63.575A8.666,8.666,0,0,1,263.151,55H555.7a8.651,8.651,0,0,1,8.62,8.575V474.791A8.651,8.651,0,0,1,555.7,483.442ZM263.151,55.3a8.287,8.287,0,0,0-8.272,8.272V474.791a8.287,8.287,0,0,0,8.272,8.272H555.7a8.287,8.287,0,0,0,8.272-8.272V63.575A8.287,8.287,0,0,0,555.7,55.3Z" transform="translate(131.067 -55)" fill="#ebebeb"/>
      <rect id="Rectangle_88" data-name="Rectangle 88" width="11.968" height="81.961" transform="translate(347.541 484.951) rotate(180)" fill="#f0f0f0"/>
      <rect id="Rectangle_89" data-name="Rectangle 89" width="246.157" height="11.059" transform="translate(339.648 496.011) rotate(180)" fill="#f0f0f0"/>
      <rect id="Rectangle_90" data-name="Rectangle 90" width="249.99" height="81.961" transform="translate(85.582 402.99)" fill="#f5f5f5"/>
      <rect id="Rectangle_91" data-name="Rectangle 91" width="217.645" height="46.814" transform="translate(101.747 417.261)" fill="#f0f0f0"/>
      <rect id="Rectangle_92" data-name="Rectangle 92" width="113.08" height="7.848" rx="2.37" transform="translate(267.125 423.518) rotate(180)" fill="#f5f5f5"/>
      <rect id="Rectangle_93" data-name="Rectangle 93" width="255.474" height="7.317" transform="translate(335.573 402.99) rotate(180)" fill="#f0f0f0"/>
      <rect id="Rectangle_94" data-name="Rectangle 94" width="17.71" height="7.317" transform="translate(335.573 395.673)" fill="#e6e6e6"/>
      <rect id="Rectangle_95" data-name="Rectangle 95" width="320.316" height="245.657" transform="translate(646.753 287.562) rotate(180)" fill="#e6e6e6"/>
      <path id="Path_170" data-name="Path 170" d="M196.628,76.35H565.045a2.772,2.772,0,0,1,2.772,2.772h0a2.773,2.773,0,0,1-2.772,2.757H196.628a2.772,2.772,0,0,1-2.788-2.772h0A2.772,2.772,0,0,1,196.628,76.35Z" transform="translate(99.828 -44.005)" fill="#e6e6e6"/>
      <rect id="Rectangle_96" data-name="Rectangle 96" width="326.649" height="245.657" transform="translate(641.209 287.562) rotate(180)" fill="#f0f0f0"/>
      <path id="Path_171" data-name="Path 171" d="M218.251,244.81H538.567v7.863H210.07Z" transform="translate(108.186 42.752)" fill="#e6e6e6"/>
      <path id="Path_172" data-name="Path 172" d="M197.346,244.81H523.995l-8.181,7.863H189.18Z" transform="translate(97.428 42.752)" fill="#f0f0f0"/>
      <rect id="Rectangle_97" data-name="Rectangle 97" width="212.418" height="293.395" transform="translate(624.574 58.524) rotate(90)" fill="#fafafa"/>
      <path id="Path_173" data-name="Path 173" d="M396.462,306.033,298.911,93.63H252.84l97.566,212.4Z" transform="translate(130.213 -35.106)" fill="#fff"/>
      <path id="Path_174" data-name="Path 174" d="M349.979,306.033,252.413,93.63H234.46l97.566,212.4Z" transform="translate(120.747 -35.106)" fill="#fff"/>
      <rect id="Rectangle_98" data-name="Rectangle 98" width="212.418" height="2.106" transform="translate(333.3 58.524) rotate(90)" fill="#e6e6e6"/>
      <g id="Group_28" data-name="Group 28" transform="translate(567.17 27.361)" opacity="0.4">
        <rect id="Rectangle_99" data-name="Rectangle 99" width="28.603" height="202.722" transform="translate(85.825 202.722) rotate(180)" fill="#f0f0f0"/>
        <rect id="Rectangle_100" data-name="Rectangle 100" width="22.286" height="202.722" transform="translate(68.357 202.722) rotate(180)" fill="#e6e6e6"/>
        <rect id="Rectangle_101" data-name="Rectangle 101" width="28.603" height="202.722" transform="translate(57.222 202.722) rotate(180)" fill="#f0f0f0"/>
        <rect id="Rectangle_102" data-name="Rectangle 102" width="22.286" height="202.722" transform="translate(39.754 202.722) rotate(180)" fill="#e6e6e6"/>
        <rect id="Rectangle_103" data-name="Rectangle 103" width="28.603" height="202.722" transform="translate(28.603 202.722) rotate(180)" fill="#f0f0f0"/>
      </g>
      <g id="Group_29" data-name="Group 29" transform="translate(308.863 27.361)" opacity="0.4">
        <rect id="Rectangle_104" data-name="Rectangle 104" width="16.483" height="202.722" transform="translate(49.465 202.722) rotate(180)" fill="#f0f0f0"/>
        <rect id="Rectangle_105" data-name="Rectangle 105" width="12.847" height="202.722" transform="translate(39.39 202.722) rotate(180)" fill="#e6e6e6"/>
        <rect id="Rectangle_106" data-name="Rectangle 106" width="16.483" height="202.722" transform="translate(32.966 202.722) rotate(180)" fill="#f0f0f0"/>
        <rect id="Rectangle_107" data-name="Rectangle 107" width="12.847" height="202.722" transform="translate(22.907 202.722) rotate(180)" fill="#e6e6e6"/>
        <rect id="Rectangle_108" data-name="Rectangle 108" width="16.483" height="202.722" transform="translate(16.483 202.722) rotate(180)" fill="#f0f0f0"/>
      </g>
      <rect id="Rectangle_109" data-name="Rectangle 109" width="131.608" height="336.269" transform="translate(106.55 27.497)" fill="#f5f5f5"/>
      <rect id="Rectangle_110" data-name="Rectangle 110" width="3.606" height="336.269" transform="translate(241.779 363.751) rotate(180)" fill="#e0e0e0"/>
      <rect id="Rectangle_111" data-name="Rectangle 111" width="311.893" height="107.232" transform="translate(225.962 39.678) rotate(90)" fill="#fff"/>
      <path id="Path_175" data-name="Path 175" d="M103.29,393.083,138.877,81.19h20.528L123.833,393.083Z" transform="translate(53.194 -41.512)" fill="#fafafa"/>
      <path id="Path_176" data-name="Path 176" d="M91.55,393.083,127.122,81.19h10.272L101.822,393.083Z" transform="translate(47.148 -41.512)" fill="#fafafa"/>
    </g>
    <g id="freepik--Shadow--inject-152" transform="translate(85.007 585.129)">
      <ellipse id="freepik--path--inject-152" cx="293.743" cy="17.15" rx="293.743" ry="17.15" fill="#f5f5f5"/>
    </g>
    <g id="freepik--Device--inject-152" transform="translate(405.451 184.366)">
      <path id="Path_177" data-name="Path 177" d="M464.3,556.5H287.351a17.756,17.756,0,0,1-17.892-19.15L294.153,163.04a20.816,20.816,0,0,1,20.407-19.15H491.5a17.756,17.756,0,0,1,17.877,19.15L484.71,537.351A20.816,20.816,0,0,1,464.3,556.5Z" transform="translate(-266.708 -138.588)" fill="#263238"/>
      <path id="Path_178" data-name="Path 178" d="M431.394,224.467H409.972a4.287,4.287,0,0,1-4.318-4.621l2.136-32.421a5.03,5.03,0,0,1,4.939-4.545h21.407a4.287,4.287,0,0,1,4.318,4.545l-2.136,32.421A5.015,5.015,0,0,1,431.394,224.467Z" transform="translate(-196.546 -118.508)" fill="#263238"/>
      <rect id="Rectangle_112" data-name="Rectangle 112" width="7.833" height="1.515" transform="translate(86.333)" fill="#370c50"/>
      <rect id="Rectangle_113" data-name="Rectangle 113" width="28.482" height="1.515" transform="translate(48.2)" fill="#370c50"/>
      <path id="Path_179" data-name="Path 179" d="M462.522,556.5H285.57a17.771,17.771,0,0,1-17.892-19.15L292.433,163.04a20.816,20.816,0,0,1,20.407-19.15H489.792a17.756,17.756,0,0,1,17.771,19.15L482.929,537.351A20.816,20.816,0,0,1,462.522,556.5Z" transform="translate(-267.625 -138.588)" fill="#370c50"/>
      <path id="Path_180" data-name="Path 180" d="M468.675,505.632H281.466A10.09,10.09,0,0,1,271.3,494.754l21.5-325.877A11.817,11.817,0,0,1,304.343,158H491.6a10.09,10.09,0,0,1,10.166,10.878l-21.5,325.877a11.817,11.817,0,0,1-11.59,10.878Z" transform="translate(-265.747 -131.321)" fill="#fff"/>
      <path id="Path_181" data-name="Path 181" d="M421.775,158H384.6L294.53,505.632h37.178Z" transform="translate(-253.768 -131.321)" fill="#fafafa"/>
      <path id="Path_182" data-name="Path 182" d="M437.076,158H418.487L328.42,505.632h18.589Z" transform="translate(-236.315 -131.321)" fill="#fafafa"/>
      <path id="Path_183" data-name="Path 183" d="M441.015,372.344,400.6,219.465A15.892,15.892,0,0,0,381.2,208.178l-95.627,25.27L272.82,433.216l156.909-41.466A15.923,15.923,0,0,0,441.015,372.344Z" transform="translate(-264.949 -105.749)" fill="#f0f0f0"/>
      <ellipse id="Ellipse_98" data-name="Ellipse 98" cx="12.241" cy="11.453" rx="12.241" ry="11.453" transform="matrix(0.719, -0.695, 0.695, 0.719, 91.366, 392.236)" fill="#fff" opacity="0.2"/>
      <path id="Path_184" data-name="Path 184" d="M361.956,152.2a5.318,5.318,0,0,1-5.227,4.893,4.545,4.545,0,0,1-4.545-4.893,5.3,5.3,0,0,1,5.227-4.893,4.545,4.545,0,0,1,4.545,4.893Z" transform="translate(-224.083 -136.826)" fill="#fff" opacity="0.2"/>
      <path id="Path_185" data-name="Path 185" d="M359,151.457a2.909,2.909,0,0,1-2.863,2.7,2.485,2.485,0,0,1-2.515-2.7,2.909,2.909,0,0,1,2.863-2.7,2.485,2.485,0,0,1,2.515,2.7Z" transform="translate(-223.34 -136.08)" fill="#fff" opacity="0.2"/>
    </g>
    <g id="freepik--Character--inject-152" transform="translate(143.088 145.495)">
      <path id="Path_186" data-name="Path 186" d="M189.477,150.074c5.651-13.893,3.621-30.815-12.408-34.6A23.346,23.346,0,0,0,147.92,139.09c.636,15.15,10.605,27.77-6.863,38.754s-15.6,44.086,18.18,37.693,15.529-23.77,15.529-23.77-8.287,6.757-10.953-.121C160.434,182.737,182.932,166.33,189.477,150.074Z" transform="translate(-76.045 -114.733)" fill="#263238"/>
      <path id="Path_187" data-name="Path 187" d="M130.332,190.136l-.742-.167c2.257-10.105,5.8-12.711,9.545-15.468s7.287-5.378,10.15-15.317c1.348-4.681.5-9.863-.333-14.862-1.061-6.378-2.151-12.984,1.136-18.892l.651.379c-3.151,5.666-2.076,12.12-1.045,18.392.848,5.09,1.727,10.347.318,15.15-2.924,10.181-6.742,12.984-10.423,15.711S132.529,180.318,130.332,190.136Z" transform="translate(-76.349 -109.223)" fill="#263238"/>
      <path id="Path_188" data-name="Path 188" d="M202.273,188.43c.106.515.288,1.288.455,1.985l.53,2.136c.364,1.439.773,2.879,1.2,4.318.864,2.863,1.788,5.757,2.788,8.605a181.805,181.805,0,0,0,6.848,16.862L216,226.32a6.061,6.061,0,0,0,1.348,1.894,12.484,12.484,0,0,0,5.893,2.606,53.586,53.586,0,0,0,17.1,0l2.045,6.439a48.214,48.214,0,0,1-4.8,1.818,49.555,49.555,0,0,1-4.939,1.363,39.921,39.921,0,0,1-10.6.985,22.543,22.543,0,0,1-11.772-3.712,17.15,17.15,0,0,1-4.878-5.181l-.242-.379L205,231.9l-.3-.545-.621-1.061-1.227-2.151a149.09,149.09,0,0,1-8.332-17.907c-1.151-3.03-2.288-6.2-3.212-9.393-.454-1.515-.909-3.2-1.318-4.833s-.773-3.182-1.106-5.121Z" transform="translate(-45.815 -76.778)" fill="#ffc3bd"/>
      <path id="Path_189" data-name="Path 189" d="M194.152,174.768c15.286,6.818,15.15,29.724,15.15,29.724l-16.1,9.681s-12.12-17.938-11.211-26.088C182.88,179.585,185.486,170.935,194.152,174.768Z" transform="translate(-49.39 -84.296)" fill="#f66363"/>
      <path id="Path_190" data-name="Path 190" d="M195.406,187.894c-4.181-4.227-7.863.651-11.226,6.06a117.925,117.925,0,0,0,7.863,13.832l6.605-3.969C199.951,198.772,199.572,192.136,195.406,187.894Z" transform="translate(-48.235 -77.879)" opacity="0.2"/>
      <path id="Path_191" data-name="Path 191" d="M222.65,218.613l10.756-5.363.121,14.074s-8.029,1.394-13.377-4.242Z" transform="translate(-29.711 -63.996)" fill="#ffc3bd"/>
      <path id="Path_192" data-name="Path 192" d="M240.459,215.75,238.611,226.2l-9.59,1.121L228.9,213.25Z" transform="translate(-25.205 -63.996)" fill="#ffc3bd"/>
      <path id="Path_193" data-name="Path 193" d="M156.81,419.381l13.3,1.273,6.2-30.952-13.3-1.273Z" transform="translate(-62.331 26.222)" fill="#ffc3bd"/>
      <path id="Path_194" data-name="Path 194" d="M99.24,393.613l10.817,7.878,18.044-25.6-10.832-7.878Z" transform="translate(-91.98 15.705)" fill="#ffc3bd"/>
      <path id="Path_195" data-name="Path 195" d="M116.494,391.162l-8.908-12.2a1.06,1.06,0,0,0-1.379-.333L95.527,384.3a2.166,2.166,0,0,0-.651,3.166c3.182,4.2,4.924,6.06,8.848,11.438,2.424,3.3,7.272,10.953,10.605,15.514s8.014,1.515,7.045-.682c-4.393-9.863-4.545-15.635-4.212-20.256a3.454,3.454,0,0,0-.667-2.318Z" transform="translate(-94.448 21.111)" fill="#263238"/>
      <path id="Path_196" data-name="Path 196" d="M173.811,407.051H157.843a1.3,1.3,0,0,0-1.257.97l-3.469,12.59a1.985,1.985,0,0,0,1.939,2.53h36.784c5.833,0,7.045-5.893,4.636-6.439-10.817-2.394-17.059-5.7-20.407-8.848a3.272,3.272,0,0,0-2.257-.8Z" transform="translate(-64.273 35.81)" fill="#263238"/>
      <path id="Path_197" data-name="Path 197" d="M175.376,389.713l-3.2,15.953H158.62l3.454-17.226Z" transform="translate(-61.399 26.227)" opacity="0.2"/>
      <path id="Path_198" data-name="Path 198" d="M114.3,368.01l10.832,7.893-9.3,13.2L105,381.206Z" transform="translate(-89.013 15.705)" opacity="0.2"/>
      <path id="Path_199" data-name="Path 199" d="M217.975,188.68c-.939,10.226-4.333,30.3-14.256,69.523l-54.449-4.712c2.621-20.437,3.848-33.678-1.273-72.372a9.408,9.408,0,0,1,8.757-10.605c3.924-.212,8.59-.348,13.271-.167a174.4,174.4,0,0,1,24.725,2.136c4.8.864,9.923,2.106,14.09,3.2A12.3,12.3,0,0,1,217.975,188.68Z" transform="translate(-66.91 -86.134)" fill="#370c50"/>
      <path id="Path_200" data-name="Path 200" d="M148.89,186.434c.7,6.06,1.212,11.469,1.515,16.317,5.015-.439,8.711-5.939,9.09-17.438C157.616,179.753,153.147,181.768,148.89,186.434Z" transform="translate(-66.41 -80.115)" opacity="0.2"/>
      <path id="Path_201" data-name="Path 201" d="M199.608,229.464s18.422,81.507,6.06,138.971c-8.226,38.481-26.543,116.216-26.543,116.216l-23.225-.591s11.09-81.583,15.741-113.625c7.954-54.873-11.968-144.364-11.968-144.364Z" transform="translate(-62.8 -57.394)" fill="#263238"/>
      <path id="Path_202" data-name="Path 202" d="M174.68,239.18,163.06,257.5a561.925,561.925,0,0,1,6.651,65.6C186.042,293.856,178.3,254.648,174.68,239.18Z" transform="translate(-59.112 -50.642)" opacity="0.2"/>
      <path id="Path_203" data-name="Path 203" d="M183.184,400.794l-28.694-.727,1.667-8.817,29.27,1.379Z" transform="translate(-63.526 27.674)" fill="#370c50"/>
      <path id="Path_204" data-name="Path 204" d="M213.336,229.048s-10.8,86.431-34.239,133.623c-18.922,38.117-58.509,98.7-58.509,98.7l-14.468-11.59s24.755-67.009,38.814-92.324c34.5-62.115,6.3-109.459,25.861-132.259Z" transform="translate(-88.436 -57.842)" fill="#263238"/>
      <rect id="Rectangle_114" data-name="Rectangle 114" width="311.075" height="189.875" rx="10.48" transform="translate(79.325 208.637) rotate(-22.79)" fill="#370c50"/>
      <rect id="Rectangle_116" data-name="Rectangle 116" width="69.963" height="42.708" rx="5.04" transform="translate(107.534 220.14) rotate(-22.79)" fill="#fff" opacity="0.2"/>
      <rect id="Rectangle_117" data-name="Rectangle 117" width="59.312" height="15.408" rx="1.89" transform="translate(148.334 317.851) rotate(-22.79)" fill="#fff" opacity="0.4"/>
      <rect id="Rectangle_118" data-name="Rectangle 118" width="59.312" height="15.408" rx="1.89" transform="translate(212.609 290.853) rotate(-22.79)" fill="#fff" opacity="0.4"/>
      <rect id="Rectangle_119" data-name="Rectangle 119" width="59.312" height="15.408" rx="1.89" transform="translate(276.868 263.856) rotate(-22.79)" fill="#fff" opacity="0.4"/>
      <rect id="Rectangle_120" data-name="Rectangle 120" width="59.312" height="15.408" rx="1.89" transform="translate(341.143 236.858) rotate(-22.79)" fill="#fff" opacity="0.4"/>
      <g id="Group_30" data-name="Group 30" transform="translate(287.789 118.468)" opacity="0.6">
        <circle id="Ellipse_99" data-name="Ellipse 99" cx="21.361" cy="21.361" r="21.361" transform="translate(30.101 9.807) rotate(-13.27)" fill="#263238"/>
        <circle id="Ellipse_100" data-name="Ellipse 100" cx="21.361" cy="21.361" r="21.361" transform="matrix(0.6, -0.8, 0.8, 0.6, 0, 40.798)" fill="#fff"/>
      </g>
      <path id="Path_205" data-name="Path 205" d="M122.979,389.695,104.42,375.651l4.56-8.151,19.725,15.3Z" transform="translate(-89.312 15.443)" fill="#370c50"/>
      <path id="Path_206" data-name="Path 206" d="M149.45,223.168l-2.879,4.666c-.227.348.2.788.818.833l57.115,4.939c.485,0,.909-.167.97-.47l.909-4.833c.076-.333-.333-.651-.864-.7l-55.146-4.772A1.015,1.015,0,0,0,149.45,223.168Z" transform="translate(-67.636 -59.067)" fill="#f66363"/>
      <path id="Path_208" data-name="Path 208" d="M153.676,229.941l-1.515-.121c-.288,0-.5-.2-.47-.379l1.242-6.272c0-.2.3-.318.606-.288l1.515.121c.3,0,.515.2.47.379l-1.242,6.272A.578.578,0,0,1,153.676,229.941Z" transform="translate(-64.969 -59.038)" fill="#370c50"/>
      <path id="Path_209" data-name="Path 209" d="M182.676,232.454l-1.515-.121c-.288,0-.5-.2-.47-.379l1.242-6.272a.545.545,0,0,1,.606-.288l1.515.121c.3,0,.515.2.47.379l-1.242,6.272C183.266,232.379,182.994,232.485,182.676,232.454Z" transform="translate(-50.034 -57.748)" fill="#370c50"/>
      <path id="Path_210" data-name="Path 210" d="M168.177,231.206l-1.515-.136c-.3,0-.515-.2-.47-.379l1.242-6.272c0-.182.3-.318.591-.288l1.515.136c.288,0,.5.2.47.379l-1.242,6.272C168.737,231.1,168.48,231.222,168.177,231.206Z" transform="translate(-57.502 -58.394)" fill="#370c50"/>
      <path id="Path_211" data-name="Path 211" d="M112.707,393.046a1.514,1.514,0,0,1-.515,0c-1.651-.333-3.03-3.136-3.757-4.772a.258.258,0,0,1,0-.288.227.227,0,0,1,.273,0c.515.182,5.03,1.924,5.378,3.575a.985.985,0,0,1-.333.985,1.863,1.863,0,0,1-1.045.5Zm-3.53-4.424c1.03,2.257,2.182,3.7,3.121,3.878a1.273,1.273,0,0,0,1.151-.424.485.485,0,0,0,.182-.5c-.212-1.015-2.894-2.318-4.454-2.954Z" transform="translate(-87.267 25.969)" fill="#407bff"/>
      <path id="Path_212" data-name="Path 212" d="M112.834,389.516a9.455,9.455,0,0,1-4.272-.454.266.266,0,0,1-.045-.455c.136-.091,3.257-2.363,5.136-1.939a1.606,1.606,0,0,1,1.106.8,1.075,1.075,0,0,1,0,1.333A3.031,3.031,0,0,1,112.834,389.516Zm-3.53-.8c1.515.439,4.348.47,5.045-.3.121-.121.227-.318,0-.712a1.061,1.061,0,0,0-.742-.545C112.335,386.9,110.153,388.153,109.3,388.713Z" transform="translate(-87.258 25.287)" fill="#407bff"/>
      <path id="Path_213" data-name="Path 213" d="M172.969,409.864a22.244,22.244,0,0,1-4.363-.545.273.273,0,0,1,0-.5c.667-.318,6.454-3.03,7.908-2a.833.833,0,0,1,.379.818,1.894,1.894,0,0,1-.788,1.515A5.151,5.151,0,0,1,172.969,409.864Zm-3.454-.909c1.727.318,4.909.742,6.212-.242a1.515,1.515,0,0,0,.576-1.106c0-.212,0-.3-.136-.349C175.347,406.7,171.924,407.895,169.515,408.955Z" transform="translate(-56.341 35.572)" fill="#407bff"/>
      <path id="Path_214" data-name="Path 214" d="M168.68,410.389a.227.227,0,0,1-.167,0,.242.242,0,0,1-.091-.258c0-.258,1.363-5.969,4.545-5.605.788.106,1,.485,1.045.8.2,1.515-3.454,4.393-5.212,5.106Zm3.969-5.409c-2.015,0-3.182,3.333-3.575,4.666,1.894-1,4.545-3.379,4.378-4.3,0-.076,0-.288-.591-.349Z" transform="translate(-56.355 34.502)" fill="#407bff"/>
      <path id="Path_215" data-name="Path 215" d="M162.719,187.953l-.8,1.136-.879,1.288c-.591.879-1.182,1.772-1.742,2.7-1.151,1.818-2.2,3.712-3.257,5.605a99.462,99.462,0,0,0-5.515,11.8,101.046,101.046,0,0,0-3.984,12.347l-.712,3.03c0-.091-.091.227.076.8a17.043,17.043,0,0,0,2.257,4.545,74.239,74.239,0,0,0,8.211,9.863c3.03,3.212,6.393,6.318,9.741,9.408s6.863,6.06,10.378,8.984,7.105,5.878,10.605,8.726l-3.788,5.59a249.077,249.077,0,0,1-23.467-15.786c-3.788-2.848-7.5-5.848-11.09-9.09a77.178,77.178,0,0,1-10.257-10.923,26.817,26.817,0,0,1-4.242-7.742,13.894,13.894,0,0,1-.651-6.06v-.651l.076-.454.152-.924.318-1.833a99.257,99.257,0,0,1,3.757-14.377A113.624,113.624,0,0,1,143.8,192.3c1.136-2.212,2.379-4.348,3.712-6.454.651-1.06,1.333-2.106,2.045-3.151l1.121-1.515c.394-.53.727-1,1.257-1.651Z" transform="translate(-74.33 -81.362)" fill="#ffc3bd"/>
      <path id="Path_216" data-name="Path 216" d="M158.842,171.14c-10.393,2.727-20.422,27.921-20.422,27.921l13.453,12.3S173.007,192.092,172.3,183.4C171.7,176,167.19,168.928,158.842,171.14Z" transform="translate(-71.802 -85.895)" fill="#f66363"/>
      <path id="Path_217" data-name="Path 217" d="M164.485,170a26.453,26.453,0,0,1-5.787.53c-.409,7.484,4.393,14.711,16.2,24.407,2.833-8.832,9.09-10.741,9.09-10.741Z" transform="translate(-61.371 -86.27)" opacity="0.2"/>
      <path id="Path_218" data-name="Path 218" d="M180.622,171.57s1.379.2,4.666.954c2.2,3.378,5.045,13.787-1.424,21.21-2.515-9.09-8.514-10.241-8.514-10.241Z" transform="translate(-52.783 -85.461)" opacity="0.2"/>
      <path id="Path_219" data-name="Path 219" d="M164.926,170H158.2c-2.2,3.378,5.363,12.741,17.15,22.437,2.833-8.832,9.09-8.3,9.09-8.3Z" transform="translate(-61.811 -86.27)" fill="#fff"/>
      <path id="Path_220" data-name="Path 220" d="M180.622,171.57s1.379.2,4.666.954c2.2,3.378,6.939,12.529.47,19.892-2.515-9.09-10.408-8.969-10.408-8.969Z" transform="translate(-52.783 -85.461)" fill="#fff"/>
      <path id="Path_221" data-name="Path 221" d="M167.373,152.05c.879,8.09,1.167,22.725-4.863,27.634,0,0,3.136,9.09,19.453,13.817,9.817-5.666,5.272-11.681,5.272-11.681-8.681-2.878-7.878-9.438-5.8-15.5Z" transform="translate(-59.395 -95.514)" fill="#ffc3bd"/>
      <path id="Path_222" data-name="Path 222" d="M169.86,155.9l8.332,8.439a25.3,25.3,0,0,0-1.151,4.318c-3.348-.773-8.2-4.257-8.242-7.833A14.407,14.407,0,0,1,169.86,155.9Z" transform="translate(-56.156 -93.531)" opacity="0.2"/>
      <path id="Path_223" data-name="Path 223" d="M178.52,131.05c2.651-2.924,7.908.8,9.848,7.969,2.909,10.6-4.848,11.363-8.908,6.06S176.308,133.49,178.52,131.05Z" transform="translate(-52.12 -106.845)" fill="#263238"/>
      <path id="Path_224" data-name="Path 224" d="M183.3,143.142a29.558,29.558,0,0,1,7.469,3.848C189.451,143.778,188.269,141.823,183.3,143.142Z" transform="translate(-48.689 -100.316)" fill="#263238"/>
      <path id="Path_225" data-name="Path 225" d="M184.31,143.965a23.315,23.315,0,0,1,6.545-.364C188.7,141.95,187.143,141.132,184.31,143.965Z" transform="translate(-48.168 -100.64)" fill="#263238"/>
      <path id="Path_226" data-name="Path 226" d="M161.225,151.543c3.378,12.923,4.545,18.468,12.453,23.876,11.923,8.151,27.058,1.182,27.618-12.5.5-12.3-5.106-31.36-18.937-34.057a18.18,18.18,0,0,0-21.134,22.68Z" transform="translate(-60.398 -107.642)" fill="#ffc3bd"/>
      <path id="Path_227" data-name="Path 227" d="M170.239,136.073l-3.742,4.348a6.484,6.484,0,0,1-9.09.667h0a6.484,6.484,0,0,1-.682-9.09l3.742-4.333a6.5,6.5,0,0,1,9.09-.682h0a6.5,6.5,0,0,1,.682,9.09Z" transform="translate(-63.17 -109.216)" fill="#fff"/>
      <path id="Path_228" data-name="Path 228" d="M172.787,140.717l-4.545,2.272a7.863,7.863,0,0,1-10.5-3.56h0a7.878,7.878,0,0,1,3.56-10.514l4.545-2.272a7.878,7.878,0,0,1,10.514,3.575h0A7.863,7.863,0,0,1,172.787,140.717Z" transform="translate(-62.264 -109.012)" fill="#f66363"/>
      <path id="Path_229" data-name="Path 229" d="M167.493,162.583s9.332-2.136,5.363-15.786a3.575,3.575,0,0,1,3.363-4.545c10.514-.288,20.346-2.485,18.953-8.575-1.742-7.7-27.937-13.635-32.694,1.773C153.191,137.616,152.843,155.917,167.493,162.583Z" transform="translate(-62.788 -109.017)" fill="#263238"/>
      <path id="Path_230" data-name="Path 230" d="M163.59,148.446a29.557,29.557,0,0,1,7.469,3.848C169.741,149.113,168.559,147.159,163.59,148.446Z" transform="translate(-58.839 -97.576)" fill="#263238"/>
      <path id="Path_231" data-name="Path 231" d="M164.6,149.289a23.314,23.314,0,0,1,6.545-.364C169.009,147.3,167.448,146.471,164.6,149.289Z" transform="translate(-58.319 -97.889)" fill="#263238"/>
      <path id="Path_232" data-name="Path 232" d="M159.818,152.674a9.772,9.772,0,0,0,5.742,4.757c3.288.985,4.984-1.924,4.136-5.06-.773-2.818-3.409-6.711-6.727-6.333a4.393,4.393,0,0,0-3.151,6.636Z" transform="translate(-61.112 -98.623)" fill="#ffc3bd"/>
      <path id="Path_233" data-name="Path 233" d="M175.48,144.167c.212,1.061.954,1.818,1.636,1.682s1.091-1.121.894-2.182-.954-1.818-1.651-1.682S175.267,143.091,175.48,144.167Z" transform="translate(-52.746 -100.706)" fill="#263238"/>
      <path id="Path_234" data-name="Path 234" d="M183.429,142.592c.212,1.076.939,1.818,1.636,1.682s1.091-1.106.879-2.166-.939-1.818-1.636-1.682S183.217,141.531,183.429,142.592Z" transform="translate(-48.651 -101.509)" fill="#263238"/>
      <path id="Path_235" data-name="Path 235" d="M183.8,140.922l2.409-1.242S185.285,141.937,183.8,140.922Z" transform="translate(-48.431 -101.885)" fill="#263238"/>
      <path id="Path_236" data-name="Path 236" d="M180.68,143.61a29,29,0,0,0,5.136,6.06,4.666,4.666,0,0,1-3.666,1.515Z" transform="translate(-50.038 -99.861)" fill="#ed847e"/>
      <path id="Path_237" data-name="Path 237" d="M180.486,152.863a8.787,8.787,0,0,1-6.06-2.318.268.268,0,0,1,.379-.379,8.636,8.636,0,0,0,7.575,1.954.262.262,0,0,1,.091.515,9.333,9.333,0,0,1-1.985.227Z" transform="translate(-53.298 -96.524)" fill="#263238"/>
      <path id="Path_238" data-name="Path 238" d="M170.87,141.993a.621.621,0,0,1-.273-.076.53.53,0,0,1-.182-.727,6.2,6.2,0,0,1,4.8-3.03.545.545,0,0,1,.545.515.53.53,0,0,1-.515.545,5.151,5.151,0,0,0-3.924,2.591A.53.53,0,0,1,170.87,141.993Z" transform="translate(-55.363 -102.667)" fill="#263238"/>
      <path id="Path_239" data-name="Path 239" d="M187.59,138.505a.5.5,0,0,1-.258,0,5.227,5.227,0,0,0-4.712-.3.569.569,0,1,1-.515-1.015,6.181,6.181,0,0,1,5.712.318.515.515,0,0,1,.2.712.5.5,0,0,1-.424.288Z" transform="translate(-49.464 -103.452)" fill="#263238"/>
      <path id="Path_240" data-name="Path 240" d="M166.928,236.56l12.12.848-5.469,12.953s-10.12-3.2-10.529-10.605Z" transform="translate(-59.117 -51.991)" fill="#ffc3bd"/>
      <path id="Path_241" data-name="Path 241" d="M180.115,244.453l-5.863,8.848-4.242-3.227,5.5-12.953Z" transform="translate(-55.533 -51.703)" fill="#ffc3bd"/>
      <path id="Path_242" data-name="Path 242" d="M175.85,142.482l2.409-1.242S177.335,143.5,175.85,142.482Z" transform="translate(-52.525 -101.081)" fill="#263238"/>
    </g>
  </g>
</svg>
