<svg xmlns="http://www.w3.org/2000/svg" width="64.599" height="64.599" viewBox="0 0 64.599 64.599">
  <g id="Group_89" data-name="Group 89" transform="translate(-54.401 -216.201)">
    <path id="Path_2460" data-name="Path 2460" d="M6.251,0a171.631,171.631,0,0,0,25.89,2.254A178.6,178.6,0,0,0,58.347,0,6.251,6.251,0,0,1,64.6,6.251v52.1A6.251,6.251,0,0,1,58.347,64.6a238.676,238.676,0,0,0-26.205-1.675A229.313,229.313,0,0,0,6.251,64.6,6.251,6.251,0,0,1,0,58.347V6.251A6.251,6.251,0,0,1,6.251,0Z" transform="translate(54.401 216.201)" fill="#370c50"/>
    <path id="Icon_material-event-seat" data-name="Icon material-event-seat" d="M6,27v4.5h4.5V27h15v4.5H30v-9H6ZM28.5,15H33v4.5H28.5ZM3,15H7.5v4.5H3Zm22.5,4.5h-15V7.5a3.009,3.009,0,0,1,3-3h9a3.009,3.009,0,0,1,3,3Z" transform="translate(69 230.5)" fill="#fff"/>
  </g>
</svg>
