<svg xmlns="http://www.w3.org/2000/svg" xmlns:xlink="http://www.w3.org/1999/xlink" width="82.599" height="82.599" viewBox="0 0 82.599 82.599">
  <defs>
    <filter id="Path_2456" x="0" y="0" width="82.599" height="82.599" filterUnits="userSpaceOnUse">
      <feOffset dy="3" input="SourceAlpha"/>
      <feGaussianBlur stdDeviation="3" result="blur"/>
      <feFlood flood-opacity="0.161"/>
      <feComposite operator="in" in2="blur"/>
      <feComposite in="SourceGraphic"/>
    </filter>
  </defs>
  <g id="Group_91" data-name="Group 91" transform="translate(-15.201 -523)">
    <g transform="matrix(1, 0, 0, 1, 15.2, 523)" filter="url(#Path_2456)">
      <path id="Path_2456-2" data-name="Path 2456" d="M6.251,0a171.631,171.631,0,0,0,25.89,2.254A178.6,178.6,0,0,0,58.347,0,6.251,6.251,0,0,1,64.6,6.251v52.1A6.251,6.251,0,0,1,58.347,64.6a238.676,238.676,0,0,0-26.205-1.675A229.313,229.313,0,0,0,6.251,64.6,6.251,6.251,0,0,1,0,58.347V6.251A6.251,6.251,0,0,1,6.251,0Z" transform="translate(9 6)" fill="#370c50"/>
    </g>
    <g id="Icons" transform="translate(36.956 541.352)">
      <g id="Group_86" data-name="Group 86" transform="translate(3 3)">
        <path id="Path_2442" data-name="Path 2442" d="M34.636,29.828a3.712,3.712,0,0,0-3.228-.888l-7.99,1.372a3.793,3.793,0,0,0-1.13-2.663L16.558,22H4.614a1.614,1.614,0,1,0,0,3.228H15.267l4.762,4.762a.646.646,0,0,1,0,.888.726.726,0,0,1-.968,0l-2.825-2.825a1.627,1.627,0,1,0-2.26,2.34L16.8,33.137a3.632,3.632,0,0,0,2.744,1.13A4.6,4.6,0,0,0,21,34.025h0l10.976-1.937a.807.807,0,0,1,.646.161.888.888,0,0,1,.242.565.807.807,0,0,1-.646.807L17.2,36.365l-8.8-7.183H4.614a1.614,1.614,0,1,0,0,3.228H7.277l8.958,7.344L32.78,36.769a3.955,3.955,0,0,0,3.309-3.955,3.712,3.712,0,0,0-1.453-2.986Z" transform="translate(-3 -5.859)" fill="#fff"/>
        <path id="Path_2443" data-name="Path 2443" d="M32.887,16.607h0a5.407,5.407,0,0,1-3.309-1.049,1.614,1.614,0,0,0-2.26.484,1.453,1.453,0,0,0,.242,2.1,8.8,8.8,0,0,0,3.47,1.453v1.775a1.614,1.614,0,1,0,3.228,0V19.594a5.084,5.084,0,0,0,2.421-1.049,3.955,3.955,0,0,0,1.614-3.228h0c0-2.986-2.744-3.955-5.084-4.439s-2.825-1.049-2.825-1.453.161-.484.4-.726a2.744,2.744,0,0,1,1.453-.323A5.084,5.084,0,0,1,34.9,9.1a1.453,1.453,0,0,0,2.179-.4,1.533,1.533,0,0,0-.323-2.26,7.344,7.344,0,0,0-2.5-.968V3.614a1.614,1.614,0,0,0-3.228,0V5.39C28.61,5.793,27,7.407,27,9.586s2.663,3.955,5.246,4.439S34.9,15.074,34.9,15.478,34.017,16.607,32.887,16.607Z" transform="translate(-7.627 -2)" fill="#fff"/>
      </g>
    </g>
  </g>
</svg>
