<svg xmlns="http://www.w3.org/2000/svg" width="933.746" height="723.943" viewBox="0 0 933.746 723.943">
  <g id="Group_113" data-name="Group 113" transform="translate(-493 -232.981)">
    <path id="Path_2470" data-name="Path 2470" d="M1021.53,542.7c106.98,118.308-203.138,288.808-453.72,288.808S143.863,699.4,114.09,542.7C41.9,162.752,847.274-63.742,685.917,268.889,450.719,753.737,937.28,449.528,1021.53,542.7Z" transform="translate(383.501 125.416)" fill="#fff"/>
    <g id="Group_110" data-name="Group 110" transform="translate(8 -66.019)">
      <circle id="Ellipse_160" data-name="Ellipse 160" cx="3" cy="3" r="3" transform="translate(1367.417 791.145)" fill="#e6e6e6"/>
      <circle id="Ellipse_161" data-name="Ellipse 161" cx="3" cy="3" r="3" transform="translate(1226.417 880.145)" fill="#e6e6e6"/>
      <circle id="Ellipse_167" data-name="Ellipse 167" cx="3" cy="3" r="3" transform="translate(1220.417 780.145)" fill="#e6e6e6"/>
      <circle id="Ellipse_173" data-name="Ellipse 173" cx="3" cy="3" r="3" transform="translate(977 833.5)" fill="#e6e6e6"/>
      <circle id="Ellipse_174" data-name="Ellipse 174" cx="3" cy="3" r="3" transform="translate(554 607)" fill="#e6e6e6"/>
      <circle id="Ellipse_175" data-name="Ellipse 175" cx="3" cy="3" r="3" transform="translate(899.417 727)" fill="#e6e6e6"/>
      <circle id="Ellipse_176" data-name="Ellipse 176" cx="3" cy="3" r="3" transform="translate(668.417 441)" fill="#e6e6e6"/>
      <circle id="Ellipse_177" data-name="Ellipse 177" cx="3" cy="3" r="3" transform="translate(986.417 333.145)" fill="#e6e6e6"/>
      <circle id="Ellipse_178" data-name="Ellipse 178" cx="3" cy="3" r="3" transform="translate(1009.417 470.145)" fill="#e6e6e6"/>
      <circle id="Ellipse_179" data-name="Ellipse 179" cx="3" cy="3" r="3" transform="translate(652 765.145)" fill="#e6e6e6"/>
      <circle id="Ellipse_180" data-name="Ellipse 180" cx="3" cy="3" r="3" transform="translate(885 982.5)" fill="#e6e6e6"/>
    </g>
  </g>
</svg>
