<svg xmlns="http://www.w3.org/2000/svg" width="2524" height="781" viewBox="0 0 2520 800" transform="rotate(15)translate(-10 -55)">
  <g id="Path_10" data-name="Path 10" fill="#370c50">
    <path d="M 1262 780.5 C 1218.95751953125 780.5 1175.55029296875 779.8218994140625 1132.9833984375 778.4840698242188 C 1091.032836914063 777.1659545898438 1048.879638671875 775.17529296875 1007.694702148438 772.5675048828125 C 967.04248046875 769.993408203125 926.3568725585938 766.7562255859375 886.767822265625 762.9462280273438 C 847.6218872070313 759.1787719726563 808.6171875 754.76123046875 770.8375244140625 749.81689453125 C 696.0712280273438 740.0315551757813 623.959716796875 727.9202880859375 556.5059204101563 713.8193969726563 C 523.1415405273438 706.8446655273438 490.4618835449219 699.2828369140625 459.3743896484375 691.3443603515625 C 428.3640747070313 683.42529296875 398.2200012207031 674.9481201171875 369.779052734375 666.1475219726563 C 341.3393859863281 657.3474731445313 313.9443664550781 648.0206298828125 288.3550109863281 638.4259643554688 C 262.7046813964844 628.8087768554688 238.2728118896484 618.6990356445313 215.7378082275391 608.3778076171875 C 193.0965576171875 598.0075073242188 171.8415679931641 587.1815795898438 152.5640563964844 576.200927734375 C 133.1518707275391 565.1437377929688 115.2884368896484 553.6693725585938 99.46937561035156 542.0965576171875 C 83.5078125 530.419677734375 69.24906158447266 518.3652954101563 57.08968734741211 506.2684326171875 C 50.96500015258789 500.1753234863281 45.25406265258789 493.9525146484375 40.11562347412109 487.7724914550781 C 34.94687652587891 481.5562438964844 30.21687507629395 475.2146911621094 26.05624961853027 468.9234313964844 C 21.8700008392334 462.5934448242188 18.14656257629395 456.1415710449219 14.98937511444092 449.747802734375 C 11.81124973297119 443.3118896484375 9.119999885559082 436.7587585449219 6.990624904632568 430.2703247070313 C 4.846250057220459 423.736572265625 3.212812423706055 417.0896911621094 2.135624885559082 410.5143737792969 C 1.050312519073486 403.8893737792969 0.5 397.1556396484375 0.5 390.5 C 0.5 383.8443603515625 1.050312519073486 377.1106262207031 2.135624885559082 370.4856262207031 C 3.212812423706055 363.9103088378906 4.846250057220459 357.263427734375 6.990624904632568 350.7296752929688 C 9.119999885559082 344.2412414550781 11.81124973297119 337.6881103515625 14.98937511444092 331.252197265625 C 18.14656257629395 324.8584289550781 21.8700008392334 318.4065551757813 26.05624961853027 312.0765686035156 C 30.21687507629395 305.7853088378906 34.94687652587891 299.4437561035156 40.11562347412109 293.2275085449219 C 45.25406265258789 287.0474853515625 50.96500015258789 280.8246765136719 57.08968734741211 274.7315673828125 C 69.24906158447266 262.6346740722656 83.5078125 250.5803070068359 99.46937561035156 238.9034423828125 C 115.2884368896484 227.3306274414063 133.1518707275391 215.8562469482422 152.5640563964844 204.7990570068359 C 171.8415679931641 193.8184356689453 193.0965576171875 182.9924926757813 215.7378082275391 172.6221923828125 C 238.2728118896484 162.3009338378906 262.7046813964844 152.1912536621094 288.3550109863281 142.5740661621094 C 313.9443664550781 132.9793701171875 341.3393859863281 123.6524963378906 369.779052734375 114.8525009155273 C 398.2200012207031 106.051872253418 428.3640747070313 97.57468414306641 459.3743896484375 89.65562438964844 C 490.4618835449219 81.71718597412109 523.1415405273438 74.15531158447266 556.5059204101563 67.18062591552734 C 623.959716796875 53.07968902587891 696.0712280273438 40.96843719482422 770.8375244140625 31.18312454223633 C 808.6171875 26.23875045776367 847.6218872070313 21.82125091552734 886.767822265625 18.05374908447266 C 926.3568725585938 14.24374961853027 967.04248046875 11.00656223297119 1007.694702148438 8.432499885559082 C 1048.879638671875 5.824687480926514 1091.032836914063 3.834062576293945 1132.9833984375 2.515937566757202 C 1175.55029296875 1.178125023841858 1218.95751953125 0.5 1262 0.5 C 1305.04248046875 0.5 1348.44970703125 1.178125023841858 1391.0166015625 2.515937566757202 C 1432.967163085938 3.834062576293945 1475.120361328125 5.824687480926514 1516.305297851563 8.432499885559082 C 1556.95751953125 11.00656223297119 1597.64306640625 14.24374961853027 1637.232177734375 18.05374908447266 C 1676.378173828125 21.82125091552734 1715.3828125 26.23875045776367 1753.162475585938 31.18312454223633 C 1827.9287109375 40.96843719482422 1900.040283203125 53.07968902587891 1967.494018554688 67.18062591552734 C 2000.8583984375 74.15531158447266 2033.5380859375 81.71718597412109 2064.625732421875 89.65562438964844 C 2095.635986328125 97.57468414306641 2125.780029296875 106.051872253418 2154.220947265625 114.8525009155273 C 2182.66064453125 123.6524963378906 2210.0556640625 132.9793701171875 2235.64501953125 142.5740661621094 C 2261.29541015625 152.1912536621094 2285.727294921875 162.3009338378906 2308.26220703125 172.6221923828125 C 2330.9033203125 182.9924926757813 2352.158447265625 193.8184356689453 2371.43603515625 204.7990570068359 C 2390.84814453125 215.8562469482422 2408.711669921875 227.3306274414063 2424.530517578125 238.9034423828125 C 2440.4921875 250.5803070068359 2454.7509765625 262.6346740722656 2466.910400390625 274.7315673828125 C 2473.034912109375 280.8246765136719 2478.745849609375 287.0474853515625 2483.88427734375 293.2275085449219 C 2489.05322265625 299.4437561035156 2493.783203125 305.7853088378906 2497.94384765625 312.0765686035156 C 2502.1298828125 318.4065551757813 2505.853515625 324.8584289550781 2509.0107421875 331.252197265625 C 2512.188720703125 337.6881103515625 2514.8798828125 344.2412414550781 2517.00927734375 350.7296752929688 C 2519.15380859375 357.263427734375 2520.787109375 363.9103088378906 2521.8642578125 370.4856262207031 C 2522.94970703125 377.1106262207031 2523.5 383.8443603515625 2523.5 390.5 C 2523.5 397.1556396484375 2522.94970703125 403.8893737792969 2521.8642578125 410.5143737792969 C 2520.787109375 417.0896911621094 2519.15380859375 423.736572265625 2517.00927734375 430.2703247070313 C 2514.8798828125 436.7587585449219 2512.188720703125 443.3118896484375 2509.0107421875 449.747802734375 C 2505.853515625 456.1415710449219 2502.1298828125 462.5934448242188 2497.94384765625 468.9234313964844 C 2493.783203125 475.2146911621094 2489.05322265625 481.5562438964844 2483.88427734375 487.7724914550781 C 2478.745849609375 493.9525146484375 2473.034912109375 500.1753234863281 2466.910400390625 506.2684326171875 C 2454.7509765625 518.3652954101563 2440.4921875 530.419677734375 2424.530517578125 542.0965576171875 C 2408.711669921875 553.6693725585938 2390.84814453125 565.1437377929688 2371.43603515625 576.200927734375 C 2352.158447265625 587.1815795898438 2330.9033203125 598.0075073242188 2308.26220703125 608.3778076171875 C 2285.727294921875 618.6990356445313 2261.29541015625 628.8087768554688 2235.64501953125 638.4259643554688 C 2210.0556640625 648.0206298828125 2182.66064453125 657.3474731445313 2154.220947265625 666.1475219726563 C 2125.780029296875 674.9481201171875 2095.635986328125 683.42529296875 2064.625732421875 691.3443603515625 C 2033.5380859375 699.2828369140625 2000.8583984375 706.8446655273438 1967.494018554688 713.8193969726563 C 1900.040283203125 727.9202880859375 1827.9287109375 740.0315551757813 1753.162475585938 749.81689453125 C 1715.3828125 754.76123046875 1676.378173828125 759.1787719726563 1637.232177734375 762.9462280273438 C 1597.64306640625 766.7562255859375 1556.95751953125 769.993408203125 1516.305297851563 772.5675048828125 C 1475.120361328125 775.17529296875 1432.967163085938 777.1659545898438 1391.0166015625 778.4840698242188 C 1348.44970703125 779.8218994140625 1305.04248046875 780.5 1262 780.5 Z" stroke="none"/>
    <path d="M 1262 1 C 1218.962768554688 1 1175.560668945313 1.6781005859375 1132.999389648438 3.015625 C 1091.054077148438 4.333740234375 1048.905883789063 6.32403564453125 1007.726196289063 8.93157958984375 C 967.079345703125 11.50531005859375 926.3994140625 14.74188232421875 886.815673828125 18.55157470703125 C 847.67529296875 22.31842041015625 808.676513671875 26.73529052734375 770.9024658203125 31.6790771484375 C 696.1488037109375 41.4625244140625 624.0496826171875 53.5718994140625 556.6083984375 67.66998291015625 C 489.813720703125 81.63311767578125 427.0048828125 97.66845703125 369.9267578125 115.3300170898438 C 341.49658203125 124.127197265625 314.11083984375 133.450927734375 288.530517578125 143.0421752929688 C 262.891357421875 152.6553344726563 238.47021484375 162.7606201171875 215.9462890625 173.076904296875 C 193.31787109375 183.44091796875 172.076171875 194.260009765625 152.8115234375 205.2334594726563 C 133.416015625 216.28125 115.568359375 227.7453002929688 99.7646484375 239.306884765625 C 83.823486328125 250.9690551757813 69.583984375 263.0068969726563 57.442138671875 275.0862426757813 C 51.328857421875 281.1681213378906 45.628662109375 287.3793640136719 40.5 293.5471801757813 C 35.343017578125 299.7493896484375 30.623779296875 306.0762634277344 26.473388671875 312.3521728515625 C 22.298828125 318.6650085449219 18.585693359375 325.0984497070313 15.437744140625 331.4734497070313 C 12.27001953125 337.888427734375 9.587890625 344.419677734375 7.465576171875 350.8856201171875 C 5.329345703125 357.3949890136719 3.701904296875 364.0165710449219 2.629150390625 370.5665588378906 C 1.548095703125 377.1646728515625 1 383.8712463378906 1 390.5 C 1 397.1287536621094 1.548095703125 403.8353271484375 2.629150390625 410.4334411621094 C 3.701904296875 416.9834289550781 5.329345703125 423.6050109863281 7.465576171875 430.1143798828125 C 9.587890625 436.580322265625 12.27001953125 443.111572265625 15.437744140625 449.5265502929688 C 18.585693359375 455.9015502929688 22.298828125 462.3349914550781 26.473388671875 468.6478271484375 C 30.623779296875 474.9237365722656 35.343017578125 481.2506103515625 40.5 487.4528198242188 C 45.628662109375 493.6206359863281 51.328857421875 499.8318786621094 57.442138671875 505.9137573242188 C 69.583984375 517.9931640625 83.823486328125 530.0309448242188 99.7646484375 541.693115234375 C 115.568359375 553.2546997070313 133.416015625 564.71875 152.8115234375 575.7665405273438 C 172.076171875 586.739990234375 193.31787109375 597.55908203125 215.9462890625 607.923095703125 C 238.47021484375 618.2393798828125 262.891357421875 628.3446655273438 288.530517578125 637.9578247070313 C 314.11083984375 647.549072265625 341.49658203125 656.872802734375 369.9267578125 665.6699829101563 C 427.0048828125 683.33154296875 489.813720703125 699.3668823242188 556.6083984375 713.3300170898438 C 624.0496826171875 727.4281005859375 696.1488037109375 739.5374755859375 770.9024658203125 749.3209228515625 C 808.676513671875 754.2647094726563 847.67529296875 758.6815795898438 886.815673828125 762.4484252929688 C 926.3994140625 766.2581176757813 967.079345703125 769.4946899414063 1007.726196289063 772.0684204101563 C 1048.905883789063 774.6759643554688 1091.054077148438 776.666259765625 1132.999389648438 777.984375 C 1175.560668945313 779.3218994140625 1218.962768554688 780 1262 780 C 1305.037231445313 780 1348.439331054688 779.3218994140625 1391.000610351563 777.984375 C 1432.945922851563 776.666259765625 1475.094116210938 774.6759643554688 1516.273681640625 772.0684204101563 C 1556.920654296875 769.4946899414063 1597.6005859375 766.2581176757813 1637.184326171875 762.4484252929688 C 1676.32470703125 758.6815795898438 1715.323486328125 754.2647094726563 1753.097412109375 749.3209228515625 C 1827.851318359375 739.5374755859375 1899.950317382813 727.4281005859375 1967.3916015625 713.3300170898438 C 2034.186279296875 699.3668823242188 2096.9951171875 683.33154296875 2154.0732421875 665.6699829101563 C 2182.50341796875 656.872802734375 2209.88916015625 647.549072265625 2235.46923828125 637.9578247070313 C 2261.10888671875 628.3446655273438 2285.52978515625 618.2393798828125 2308.0537109375 607.923095703125 C 2330.68212890625 597.55908203125 2351.923828125 586.739990234375 2371.1884765625 575.7665405273438 C 2390.583984375 564.71875 2408.431640625 553.2546997070313 2424.2353515625 541.693115234375 C 2440.176513671875 530.0309448242188 2454.416015625 517.9931640625 2466.557861328125 505.9137573242188 C 2472.671142578125 499.8318786621094 2478.371337890625 493.6206359863281 2483.5 487.4528198242188 C 2488.656982421875 481.2506103515625 2493.376220703125 474.9237365722656 2497.526611328125 468.6478271484375 C 2501.701171875 462.3349914550781 2505.414306640625 455.9015502929688 2508.562255859375 449.5265502929688 C 2511.72998046875 443.111572265625 2514.412109375 436.580322265625 2516.534423828125 430.1143798828125 C 2518.670654296875 423.6050109863281 2520.298095703125 416.9834289550781 2521.370849609375 410.4334411621094 C 2522.451904296875 403.8353271484375 2523 397.1287536621094 2523 390.5 C 2523 383.8712463378906 2522.451904296875 377.1646728515625 2521.370849609375 370.5665588378906 C 2520.298095703125 364.0165710449219 2518.670654296875 357.3949890136719 2516.534423828125 350.8856201171875 C 2514.412109375 344.419677734375 2511.72998046875 337.888427734375 2508.562255859375 331.4734497070313 C 2505.414306640625 325.0984497070313 2501.701171875 318.6650085449219 2497.526611328125 312.3521728515625 C 2493.376220703125 306.0762634277344 2488.656982421875 299.7493896484375 2483.5 293.5471801757813 C 2478.371337890625 287.3793640136719 2472.671142578125 281.1681213378906 2466.557861328125 275.0862426757813 C 2454.416015625 263.0068969726563 2440.176513671875 250.9690551757813 2424.2353515625 239.306884765625 C 2408.431640625 227.7453002929688 2390.583984375 216.28125 2371.1884765625 205.2334594726563 C 2351.923828125 194.260009765625 2330.68212890625 183.44091796875 2308.0537109375 173.076904296875 C 2285.52978515625 162.7606201171875 2261.10888671875 152.6553344726563 2235.46923828125 143.0421752929688 C 2209.88916015625 133.450927734375 2182.50341796875 124.127197265625 2154.0732421875 115.3300170898438 C 2096.9951171875 97.66845703125 2034.186279296875 81.63311767578125 1967.3916015625 67.66998291015625 C 1899.950317382813 53.5718994140625 1827.851318359375 41.4625244140625 1753.097412109375 31.6790771484375 C 1715.323486328125 26.73529052734375 1676.32470703125 22.31842041015625 1637.184326171875 18.55157470703125 C 1597.6005859375 14.74188232421875 1556.920654296875 11.50531005859375 1516.273681640625 8.93157958984375 C 1475.094116210938 6.32403564453125 1432.945922851563 4.333740234375 1391.000610351563 3.015625 C 1348.439331054688 1.6781005859375 1305.037231445313 1 1262 1 M 1262 0 C 1958.9833984375 0 2524 174.8328247070313 2524 390.5 C 2524 606.1671752929688 1958.9833984375 781 1262 781 C 565.0166015625 781 0 606.1671752929688 0 390.5 C 0 174.8328247070313 565.0166015625 0 1262 0 Z" stroke="none" fill="#707070"/>
  </g>
</svg>
