<svg xmlns="http://www.w3.org/2000/svg" width="30" height="30" viewBox="0 0 30 30">
  <g id="Group_95" data-name="Group 95" transform="translate(-1658 -61)">
    <circle id="Ellipse_149" data-name="Ellipse 149" cx="15" cy="15" r="15" transform="translate(1658 61)" fill="#fff"/>
    <path id="Icon_awesome-user-alt" data-name="Icon awesome-user-alt" d="M11.111,12.5a6.25,6.25,0,1,0-6.25-6.25A6.251,6.251,0,0,0,11.111,12.5Zm5.555,1.389H14.274a7.555,7.555,0,0,1-6.328,0H5.555A5.555,5.555,0,0,0,0,19.443v.694a2.084,2.084,0,0,0,2.083,2.083H20.138a2.084,2.084,0,0,0,2.083-2.083v-.694A5.555,5.555,0,0,0,16.666,13.888Z" transform="translate(1661.891 63.779)"/>
  </g>
</svg>
