<svg xmlns="http://www.w3.org/2000/svg" width="11.772" height="12.602" viewBox="0 0 11.772 12.602">
  <path id="Icon_material-android" data-name="Icon material-android" d="M5.354,9.451a.561.561,0,0,0,.589.525h.589v1.838a.838.838,0,0,0,.883.788.838.838,0,0,0,.883-.788V9.976H9.475v1.838a.889.889,0,0,0,1.766,0V9.976h.589a.561.561,0,0,0,.589-.525V4.2H5.354ZM3.883,4.2A.838.838,0,0,0,3,4.988V8.664a.838.838,0,0,0,.883.788.838.838,0,0,0,.883-.788V4.988A.838.838,0,0,0,3.883,4.2Zm10.007,0a.838.838,0,0,0-.883.788V8.664a.889.889,0,0,0,1.766,0V4.988A.838.838,0,0,0,13.89,4.2ZM10.964,1.134l.765-.683a.241.241,0,0,0,0-.373.317.317,0,0,0-.418,0L10.44.856A3.779,3.779,0,0,0,8.886.525,3.835,3.835,0,0,0,7.32.856L6.443.079a.317.317,0,0,0-.418,0,.241.241,0,0,0,0,.373l.771.688A3.049,3.049,0,0,0,5.354,3.675h7.063A3.042,3.042,0,0,0,10.964,1.134ZM7.709,2.625H7.12V2.1h.589Zm2.943,0h-.589V2.1h.589Z" transform="translate(-3)" fill="#fff"/>
</svg>
