<svg xmlns="http://www.w3.org/2000/svg" width="12.353" height="12.354" viewBox="0 0 12.353 12.354">
  <path id="Icon_awesome-app-store-ios" data-name="Icon awesome-app-store-ios" d="M11.03,2.25H1.324A1.324,1.324,0,0,0,0,3.574V13.28A1.324,1.324,0,0,0,1.324,14.6H11.03a1.324,1.324,0,0,0,1.324-1.324V3.574A1.324,1.324,0,0,0,11.03,2.25ZM3.5,11.97a.551.551,0,0,1-.954-.551l.394-.681a.946.946,0,0,1,1.092.314Zm3.83-1.486H2.316a.551.551,0,0,1,0-1.1H3.723l1.8-3.121-.565-.976a.551.551,0,0,1,.954-.551l.245.425.245-.425a.551.551,0,1,1,.954.551l-2.366,4.1H6.706a.756.756,0,0,1,.626,1.1Zm2.705,0h-.8l.54.935a.551.551,0,1,1-.954.551Q7.463,9.616,6.783,8.438a1.525,1.525,0,0,1,.2-1.87q.542.939,1.624,2.813h1.434a.551.551,0,0,1,0,1.1Z" transform="translate(0 -2.25)" fill="#fff"/>
</svg>
