<svg xmlns="http://www.w3.org/2000/svg" width="141.379" height="67" viewBox="0 0 141.379 67">
  <g id="footer_logo" data-name="Group 96" transform="translate(-11 -4182)">
    <text id="T" transform="translate(39 4232)" fill="#fff" font-size="48" font-weight="500" font-style="italic"><tspan x="-27.696" y="0">T</tspan></text>
    <text id="i" transform="translate(44 4233)" fill="#fff" font-size="34" font-weight="500" font-style="italic"><tspan x="-9.452" y="0">i</tspan></text>
    <text id="r" transform="translate(102 4233)" fill="#fff" font-size="39" font-weight="500" font-style="italic"><tspan x="-15.756" y="0">r</tspan></text>
    <text id="e" transform="translate(127 4234)" fill="#fff" font-size="40" font-weight="500" font-style="italic"><tspan x="-24.68" y="0">e</tspan></text>
    <text id="t-2" data-name="t" transform="translate(141 4234)" fill="#fff" font-size="38"  font-weight="500" font-style="italic"><tspan x="-14.744" y="0">t</tspan></text>
    <g id="Group_6" data-name="Group 6" transform="translate(152.379 4205.402) rotate(-180)">
      <circle id="Ellipse_9" data-name="Ellipse 9" cx="2.705" cy="2.705" r="2.705" transform="translate(0 0.846) rotate(-9)" fill="#fff"/>
      <circle id="Ellipse_8" data-name="Ellipse 8" cx="2.705" cy="2.705" r="2.705" transform="translate(6.189 5.343) rotate(-9)" fill="#fff"/>
    </g>
    <g id="Group_7" data-name="Group 7" transform="translate(-4243 4106)">
      <path id="Path_1" data-name="Path 1" d="M2654.738,627.581s-5.441-2.4-8.392.745a11.78,11.78,0,0,0,.627,15.608c4.95,5.045,10.981,1.49,14.667-2.588s11.573-13.064,13.239-14.373,3.379-1.214,4.188,0,0,19.306,0,19.306" transform="translate(1646.288 -520.001)" fill="none" stroke="#fff" stroke-linecap="round" stroke-width="4"/>
      <path id="Path_2" data-name="Path 2" d="M2665.364,800.5h-6.289" transform="translate(1659.973 -682.998)" fill="none" stroke="#fff" stroke-linecap="round" stroke-width="4"/>
    </g>
  </g>
</svg>
